<?xml version="1.0" encoding="UTF-8"?>
<svg width="34px" height="57px" viewBox="0 0 34 57" version="1.1" xmlns="http://www.w3.org/2000/svg" xmlns:xlink="http://www.w3.org/1999/xlink">
    <!-- Generator: Sketch 43.2 (39069) - http://www.bohemiancoding.com/sketch -->
    <title>hiome logo</title>
    <desc>Created with Sketch.</desc>
    <defs>
        <path d="M23.65625,38 L23.65625,57 L21.4824219,57 L21.4824219,47.5527344 L12.9375,47.5527344 L12.9375,57 L10.7636719,57 L10.7636719,38 L0.809,38 L0.809,35.456 L8.971,35.456 L8.971,35.297 C7.98166172,34.4489958 7.04533775,33.4508391 6.162,32.3025 C5.27866225,31.1541609 4.49250344,29.8733404 3.8035,28.46 C3.11449655,27.0466596 2.56683536,25.509675 2.1605,23.849 C1.75416463,22.188325 1.551,20.4040095 1.551,18.496 C1.551,15.8106532 1.95732927,13.3726776 2.77,11.182 C3.58267073,8.99132238 4.70449284,7.11867444 6.1355,5.564 C7.56650715,4.00932556 9.2448237,2.80800424 11.1705,1.96 C13.0961763,1.11199576 15.1719889,0.688 17.398,0.688 C19.7300117,0.688 21.8411572,1.15616199 23.7315,2.0925 C25.6218428,3.02883801 27.2471599,4.3008253 28.6075,5.9085 C29.9678401,7.51617471 31.0189963,9.38882265 31.761,11.5265 C32.5030037,13.6641774 32.874,15.9166548 32.874,18.284 C32.874,20.2626766 32.6531689,22.1264913 32.2115,23.8755 C31.7698311,25.6245087 31.1956702,27.2233261 30.489,28.672 C29.7823298,30.1206739 28.9785045,31.4014944 28.0775,32.5145 C27.1764955,33.6275056 26.2666713,34.5549963 25.348,35.297 L25.348,35.456 L33.616,35.456 L33.616,38 L23.65625,38 Z M21.4824219,38 L21.267,38 L21.267,36.145 C22.3270053,35.4383298 23.3693282,34.5373388 24.394,33.442 C25.4186718,32.3466612 26.328496,31.0658407 27.1235,29.5995 C27.918504,28.1331593 28.5633309,26.4901758 29.058,24.6705 C29.5526691,22.8508242 29.8,20.8810106 29.8,18.761 C29.8,17.029658 29.5350026,15.2453425 29.005,13.408 C28.4749973,11.5706575 27.6888385,9.90117418 26.6465,8.3995 C25.6041615,6.89782583 24.3056744,5.67000477 22.751,4.716 C21.1963256,3.76199523 19.3943436,3.285 17.345,3.285 C15.4016569,3.285 13.6438412,3.69132927 12.0715,4.504 C10.4991588,5.31667073 9.16533881,6.4296596 8.07,7.843 C6.97466119,9.2563404 6.12666967,10.9081572 5.526,12.7985 C4.92533033,14.6888428 4.625,16.7116559 4.625,18.867 C4.625,20.8456766 4.87233086,22.735991 5.367,24.538 C5.86166914,26.340009 6.50649602,27.9829926 7.3015,29.467 C8.09650397,30.9510074 9.00632821,32.2671609 10.031,33.4155 C11.0556718,34.5638391 12.0979947,35.4736633 13.158,36.145 L13.158,38 L12.9375,38 L12.9375,45.1875 L21.4824219,45.1875 L21.4824219,38 Z" id="path-1"></path>
    </defs>
    <g id="logo-mark" stroke="none" stroke-width="1" fill="none" fill-rule="evenodd">
        <g id="hiome-logo">
            <g id="H-+-Rectangle-Mask">
                <mask id="mask-2" fill="white">
                    <use xlink:href="#path-1"></use>
                </mask>
                <use id="logo" fill="#000000" xlink:href="#path-1"></use>
                <g id="tint/black" mask="url(#mask-2)" fill="#000000">
                    <g transform="translate(-2.000000, -14.000000)" id="Rectangle">
                        <rect x="0" y="0" width="142" height="77"></rect>
                    </g>
                </g>
            </g>
        </g>
    </g>
</svg>