<svg fill="#000000" xmlns:dc="http://purl.org/dc/elements/1.1/" xmlns:cc="http://creativecommons.org/ns#" xmlns:rdf="http://www.w3.org/1999/02/22-rdf-syntax-ns#" xmlns:svg="http://www.w3.org/2000/svg" xmlns="http://www.w3.org/2000/svg" xmlns:sodipodi="http://sodipodi.sourceforge.net/DTD/sodipodi-0.dtd" xmlns:inkscape="http://www.inkscape.org/namespaces/inkscape" viewBox="0 0 26.458333 26.458334" version="1.1" x="0px" y="0px"><g transform="translate(0,-270.54164)"><path style="color:#000000;font-style:normal;font-variant:normal;font-weight:normal;font-stretch:normal;font-size:medium;line-height:normal;font-family:sans-serif;font-variant-ligatures:normal;font-variant-position:normal;font-variant-caps:normal;font-variant-numeric:normal;font-variant-alternates:normal;font-feature-settings:normal;text-indent:0;text-align:start;text-decoration:none;text-decoration-line:none;text-decoration-style:solid;text-decoration-color:#000000;letter-spacing:normal;word-spacing:normal;text-transform:none;writing-mode:lr-tb;direction:ltr;text-orientation:mixed;dominant-baseline:auto;baseline-shift:baseline;text-anchor:start;white-space:normal;shape-padding:0;clip-rule:nonzero;display:inline;overflow:visible;visibility:visible;opacity:1;isolation:auto;mix-blend-mode:normal;color-interpolation:sRGB;color-interpolation-filters:linearRGB;solid-color:#000000;solid-opacity:1;vector-effect:none;fill:#000000;fill-opacity:1;fill-rule:nonzero;stroke:none;stroke-width:1.05833328;stroke-linecap:round;stroke-linejoin:round;stroke-miterlimit:4;stroke-dasharray:none;stroke-dashoffset:0;stroke-opacity:1;color-rendering:auto;image-rendering:auto;shape-rendering:auto;text-rendering:auto;enable-background:accumulate" d="m 7.2987794,272.39379 a 0.5292196,0.52651571 0 0 0 -0.5198647,0.53469 v 1.16192 H 4.997628 c -1.8806727,0 -3.4101277,1.52164 -3.4101277,3.3927 v 14.27055 c 0,1.87105 1.529455,3.39424 3.4101277,3.39424 h 16.46101 c 1.880672,0 3.412195,-1.52319 3.412195,-3.39424 V 277.4831 c 0,-1.87106 -1.531523,-3.3927 -3.412195,-3.3927 h -1.779219 v -1.16192 a 0.5292196,0.52651571 0 0 0 -0.536918,-0.53469 0.5292196,0.52651571 0 0 0 -0.521416,0.53469 v 1.16192 h -4.863269 v -1.16192 a 0.5292196,0.52651571 0 0 0 -0.537434,-0.53469 0.5292196,0.52651571 0 0 0 -0.519348,0.53469 v 1.16192 H 7.8356976 v -1.16192 a 0.5292196,0.52651571 0 0 0 -0.5369182,-0.53469 z m -2.3011514,2.74748 h 1.7812867 v 1.984 a 0.5292196,0.52651571 0 1 0 1.0567829,0 v -1.984 h 4.8653364 v 1.984 a 0.5292196,0.52651571 0 1 0 1.056782,0 v -1.984 h 4.863269 v 1.984 a 0.52929699,0.52659271 0 1 0 1.058334,0 v -1.984 h 1.779219 c 1.312659,0 2.353862,1.03588 2.353862,2.34183 v 0.41387 H 2.6463504 v -0.41387 c 0,-1.30595 1.0386187,-2.34183 2.3512776,-2.34183 z M 2.6463504,278.9499 H 23.8125 v 12.80375 c 0,1.30594 -1.041203,2.34132 -2.353862,2.34132 H 4.997628 c -1.3126589,0 -2.3512776,-1.03538 -2.3512776,-2.34132 z m 4.2328165,1.80715 a 0.92604166,0.92131032 0 0 0 -0.9260416,0.92131 0.92604166,0.92131032 0 0 0 0.9260416,0.92131 0.92604166,0.92131032 0 0 0 0.9260417,-0.92131 0.92604166,0.92131032 0 0 0 -0.9260417,-0.92131 z m 4.2333331,0 a 0.92604166,0.92131032 0 0 0 -0.926042,0.92131 0.92604166,0.92131032 0 0 0 0.926042,0.92131 0.92604166,0.92131032 0 0 0 0.926042,-0.92131 0.92604166,0.92131032 0 0 0 -0.926042,-0.92131 z m 4.233333,0 a 0.92604166,0.92131032 0 0 0 -0.926041,0.92131 0.92604166,0.92131032 0 0 0 0.926041,0.92131 0.92604166,0.92131032 0 0 0 0.926042,-0.92131 0.92604166,0.92131032 0 0 0 -0.926042,-0.92131 z m 4.233333,0 a 0.92604166,0.92131032 0 0 0 -0.926041,0.92131 0.92604166,0.92131032 0 0 0 0.926041,0.92131 0.92604166,0.92131032 0 0 0 0.926042,-0.92131 0.92604166,0.92131032 0 0 0 -0.926042,-0.92131 z m -12.6999991,3.68524 a 0.92604166,0.92131032 0 0 0 -0.9260416,0.92131 0.92604166,0.92131032 0 0 0 0.9260416,0.92131 0.92604166,0.92131032 0 0 0 0.9260417,-0.92131 0.92604166,0.92131032 0 0 0 -0.9260417,-0.92131 z m 4.2333331,0 a 0.92604166,0.92131032 0 0 0 -0.926042,0.92131 0.92604166,0.92131032 0 0 0 0.926042,0.92131 0.92604166,0.92131032 0 0 0 0.926042,-0.92131 0.92604166,0.92131032 0 0 0 -0.926042,-0.92131 z m 4.233333,0 a 0.92604166,0.92131032 0 0 0 -0.926041,0.92131 0.92604166,0.92131032 0 0 0 0.926041,0.92131 0.92604166,0.92131032 0 0 0 0.926042,-0.92131 0.92604166,0.92131032 0 0 0 -0.926042,-0.92131 z m 4.233333,0 a 0.92604166,0.92131032 0 0 0 -0.926041,0.92131 0.92604166,0.92131032 0 0 0 0.926041,0.92131 0.92604166,0.92131032 0 0 0 0.926042,-0.92131 0.92604166,0.92131032 0 0 0 -0.926042,-0.92131 z m -12.6999991,3.68524 a 0.92604166,0.92131032 0 0 0 -0.9260416,0.92131 0.92604166,0.92131032 0 0 0 0.9260416,0.92131 0.92604166,0.92131032 0 0 0 0.9260417,-0.92131 0.92604166,0.92131032 0 0 0 -0.9260417,-0.92131 z m 4.2333331,0 a 0.92604166,0.92131032 0 0 0 -0.926042,0.92131 0.92604166,0.92131032 0 0 0 0.926042,0.92131 0.92604166,0.92131032 0 0 0 0.926042,-0.92131 0.92604166,0.92131032 0 0 0 -0.926042,-0.92131 z m 4.233333,0 a 0.92604166,0.92131032 0 0 0 -0.926041,0.92131 0.92604166,0.92131032 0 0 0 0.926041,0.92131 0.92604166,0.92131032 0 0 0 0.926042,-0.92131 0.92604166,0.92131032 0 0 0 -0.926042,-0.92131 z"></path></g></svg>