<svg xmlns="http://www.w3.org/2000/svg" data-name="Layer 3" viewBox="0 0 128 128" x="0px" y="0px"><g data-name="Group"><path data-name="Compound Path" d="M104.78223,75.85107V56.95313H96.49365a35.69427,35.69427,0,0,0-3.1792-7.71191l5.87012-5.87061L85.81836,30.00439,79.959,35.94873a34.18584,34.18584,0,0,0-7.71045-3.17334V24.41992H53.35107V32.708a35.69542,35.69542,0,0,0-7.7124,3.17969l-5.87012-5.87061L26.415,43.37061l5.85937,5.85986a34.18533,34.18533,0,0,0-3.18018,7.72266H20.81738V75.85107H29.106a35.69811,35.69811,0,0,0,3.1792,7.7124L26.415,89.43359l13.35352,13.35352,5.85938-5.85938a34.20753,34.20753,0,0,0,7.72314,3.18018v8.27686H72.24854v-8.28857a35.70391,35.70391,0,0,0,7.7124-3.1792l5.87012,5.87012L99.18457,89.43359,93.3252,83.57373a34.17609,34.17609,0,0,0,3.18018-7.72266ZM62.7998,89.61914a23.217,23.217,0,1,1,23.21729-23.2168A23.24323,23.24323,0,0,1,62.7998,89.61914Z"/><path data-name="Path" d="M7.45215,85.96631A2.50066,2.50066,0,0,1,5.064,84.20166,60.462,60.462,0,0,1,52.91016,6.80615a2.5,2.5,0,1,1,.8125,4.93359A55.46261,55.46261,0,0,0,9.84229,82.73a2.50162,2.50162,0,0,1-2.39014,3.23633Z"/><path data-name="Path" d="M62.7998,126.8042a60.306,60.306,0,0,1-46.2417-21.53955,2.5,2.5,0,0,1,3.82617-3.21875,55.40608,55.40608,0,0,0,84.374.53662,2.4999,2.4999,0,1,1,3.78516,3.2666A60.38355,60.38355,0,0,1,62.7998,126.8042Z"/><path data-name="Path" d="M116.88428,89.62256a2.50117,2.50117,0,0,1-2.334-3.395A55.45435,55.45435,0,0,0,72.22461,11.79785a2.49977,2.49977,0,1,1,.84424-4.92773A60.45382,60.45382,0,0,1,119.21924,88.0166,2.50089,2.50089,0,0,1,116.88428,89.62256Z"/><path data-name="Path" d="M53.56348,17.3501a2.5,2.5,0,0,1-1.76758-4.26758l3.68555-3.686L51.54883,5.46338A2.49973,2.49973,0,0,1,55.084,1.92822l7.46875,7.46826-7.22168,7.22119A2.49107,2.49107,0,0,1,53.56348,17.3501Z"/><path data-name="Path" d="M114.25537,93.95166l-3.83984-9.46289a2.49985,2.49985,0,0,1,4.63281-1.87988l1.96,4.83008,5.1543-2.09131a2.49985,2.49985,0,0,1,1.87988,4.63281Z"/><path data-name="Path" d="M14.27588,109a2.5019,2.5019,0,0,1-2.44678-3.02539l2.21729-10.32715L24.03125,97.791a2.50006,2.50006,0,0,1-1.0498,4.88867l-5.09619-1.09375-1.16748,5.43848A2.501,2.501,0,0,1,14.27588,109Z"/></g></svg>