<?xml version="1.0" encoding="UTF-8"?>
<svg version="1.1" viewBox="0 0 990 773" xmlns="http://www.w3.org/2000/svg">
<defs>
<linearGradient id="b" x1="50%" x2="50%" y1="100%" y2="-3.4349e-15%">
<stop stop-color="#808080" stop-opacity=".25" offset="0"/>
<stop stop-color="#808080" stop-opacity=".12" offset=".54"/>
<stop stop-color="#808080" stop-opacity=".1" offset="1"/>
</linearGradient>
<linearGradient id="a" x1="74844%" x2="74844%" y1="59628%" y2="17926%">
<stop stop-color="#808080" stop-opacity=".25" offset="0"/>
<stop stop-color="#808080" stop-opacity=".12" offset=".54"/>
<stop stop-color="#808080" stop-opacity=".1" offset="1"/>
</linearGradient>
</defs>
<g fill="none" fill-rule="evenodd">
<path d="m104.4 77.33c-6.46 2.68-13.09 6.12-16.64 12.15-3.76 6.37-3.31 14.28-2.61 21.65 6.1 63.92 22.17 131.9-5.58 189.8-13.47 28.09-36 50.6-53.92 76.11s-31.45 57.36-23.13 87.37c10.16 36.67 48.08 57 73.64 85.22 16.73 18.45 28.46 40.87 44.07 60.28s37 36.51 61.92 37.65c35.84 1.65 65-29.3 100.14-36.47 36-7.34 72.25 11.34 101.44 33.7s55.74 49.45 89.75 63.41c37.56 15.43 79.9 13.07 119.44 22.34 36 8.45 69.14 26.42 104.88 36s77.63 9 105.32-15.47c36.09-32 33.25-89 56.3-131.33 21.41-39.33 63.32-62.81 91.53-97.58 50.76-62.58 49.1-158.23 6-226.29s-121.17-109.27-201-120c-36-4.83-73.07-4.17-107.68-15.16-92.64-29.4-147.77-134.74-242.35-156.66-60.12-13.91-118.59 10.18-169.8 39.83-44.45 25.74-85.46 14.26-131.72 33.45z" fill="#6C63FF" fill-rule="nonzero" opacity=".1"/>
<path d="m194.68 283.83s-34.13 32.21-70.76 33.17c-15.382 0.30623-30.249 5.5942-42.37 15.07-5.7291 4.5291-11.031 9.5735-15.84 15.07" stroke="#535461" stroke-width="2"/>
<path d="m42.61 347.93c4.92-2.5 23.7-0.84 23.7-0.84s-9.74 16.15-14.66 18.65c-3.2114 1.9037-7.2157 1.8601-10.385-0.11309-3.1691-1.9732-4.9753-5.5474-4.684-9.2692 0.29125-3.7218 2.6314-6.9715 6.0689-8.4277h-0.04z" fill="#6C63FF" fill-rule="nonzero"/>
<path d="m62.38 319.38c5.49 0.58 20.35 12.18 20.35 12.18s-17 8.26-22.44 7.69c-5.2873-0.79884-9.0106-5.6159-8.4512-10.934 0.55937-5.318 5.2034-9.2549 10.541-8.9362z" fill="#6C63FF" fill-rule="nonzero"/>
<path d="m109.26 296.37c4.44 3.27 11.42 20.79 11.42 20.79s-18.81-1.43-23.25-4.69c-4.1572-3.3588-4.9386-9.3928-1.7739-13.7s9.1565-5.3641 13.604-2.4003z" fill="#6C63FF" fill-rule="nonzero"/>
<path d="m148.65 286.96c4.93 2.47 14.77 18.56 14.77 18.56s-18.78 1.77-23.71-0.7c-3.3887-1.4797-5.6843-4.7087-5.9686-8.3955-0.28432-3.6868 1.489-7.2295 4.6108-9.2114 3.1218-1.9818 7.0824-2.0792 10.298-0.25315z" fill="#6C63FF" fill-rule="nonzero"/>
<path d="m93.18 349.77c1.64-5.27-3.16-23.51-3.16-23.51s-14.28 12.32-15.92 17.59c-1.2588 3.4648-0.50938 7.3411 1.9502 10.087 2.4596 2.7459 6.2304 3.9158 9.8123 3.0445 3.5819-0.87134 6.394-3.6427 7.3175-7.2115z" fill="#6C63FF" fill-rule="nonzero"/>
<path d="m139.11 338.14c0-5.52-10.05-21.48-10.05-21.48s-9.94 16-9.93 21.54c0.016569 5.5228 4.5072 9.9866 10.03 9.97 5.5228-0.016569 9.9866-4.5072 9.97-10.03h-0.02z" fill="#6C63FF" fill-rule="nonzero"/>
<path d="m182.2 320.78c0.92-5.44-6.28-22.87-6.28-22.87s-12.51 14.12-13.42 19.56c-0.63836 5.3014 3.001 10.169 8.2664 11.056 5.2655 0.88738 10.299-2.5186 11.434-7.7364v-0.01z" fill="#6C63FF" fill-rule="nonzero"/>
<path d="m239.03 198.53s-41.11-22.58-53.33-57.17c-5.0204-14.545-14.625-27.069-27.37-35.69-6.0822-4.0472-12.522-7.5284-19.24-10.4" stroke="#535461" stroke-width="2"/>
<path d="m131.29 73.52c3.89 3.91 8.08 22.3 8.08 22.3s-18.36-4.3-22.25-8.22c-3.5679-3.9622-3.3996-10.027 0.38264-13.785 3.7822-3.7582 9.8479-3.8879 13.787-0.2948z" fill="#6C63FF" fill-rule="nonzero"/>
<path d="m164.54 83.55c1.14 5.4-5.33 23.11-5.33 23.11s-13.07-13.59-14.21-19c-0.92167-3.5637 0.18899-7.3456 2.8913-9.8451 2.7023-2.4994 6.5592-3.3123 10.04-2.1159 3.4811 1.1963 6.0236 4.2084 6.6184 7.841l-0.01 0.01z" fill="#6C63FF" fill-rule="nonzero"/>
<path d="m200.84 121.14c-1.74 5.23-16.27 17.26-16.27 17.26s-4.42-18.33-2.68-23.57c1.7425-5.2467 7.4083-8.0875 12.655-6.345 5.2467 1.7425 8.0875 7.4083 6.345 12.655h-0.05z" fill="#6C63FF" fill-rule="nonzero"/>
<path d="m221.92 155.69c-0.83 5.45-13.12 19.76-13.12 19.76s-7.46-17.32-6.63-22.77c0.37671-3.669 2.7424-6.8327 6.1551-8.2315 3.4127-1.3988 7.3183-0.80555 10.162 1.5436 2.8434 2.3491 4.1629 6.0726 3.4332 9.688v0.01z" fill="#6C63FF" fill-rule="nonzero"/>
<path d="m145.08 122.21c5.52-0.06 21.4-10.24 21.4-10.24s-16.11-9.8-21.63-9.74c-5.5228 0.063513-9.9485 4.5922-9.885 10.115s4.5922 9.9485 10.115 9.885v-0.02z" fill="#6C63FF" fill-rule="nonzero"/>
<path d="m170.24 162.35c5.24-1.71 17.35-16.17 17.35-16.17s-18.31-4.53-23.55-2.82c-3.5214 1.0049-6.2118 3.8542-7.0133 7.4274-0.80148 3.5732 0.4142 7.2986 3.169 9.7113s6.608 3.1267 10.044 1.8613v-0.01z" fill="#6C63FF" fill-rule="nonzero"/>
<path d="m200.04 198.01c5.46-0.8 19.84-13 19.84-13s-17.28-7.56-22.73-6.76c-3.6558 0.3768-6.8103 2.7285-8.2152 6.1245-1.4049 3.396-0.83389 7.289 1.4872 10.138 2.3211 2.8494 6.018 4.1961 9.628 3.5071l-0.01-0.01z" fill="#6C63FF" fill-rule="nonzero"/>
<circle cx="521.94" cy="384.41" r="362" fill="url(#b)" fill-rule="nonzero"/>
<circle cx="521.94" cy="384.41" r="356" fill="#6C63FF" fill-rule="nonzero"/>
<circle cx="521.94" cy="384.41" r="283" fill="#DDE1EC" fill-rule="nonzero"/>
<rect x="513.94" y="151.41" width="16" height="250" fill="#535461" fill-rule="nonzero" opacity=".3"/>
<g transform="translate(370 303)" fill="#000" fill-rule="nonzero" opacity=".1">
<rect x="168.94" y="75.41" width="226" height="20"/>
<rect transform="translate(75.843 46.677) rotate(-62.36) translate(-75.843 -46.677)" x="65.843" y="-33.583" width="20" height="160.52"/>
<circle cx="151.94" cy="85.41" r="30"/>
</g>
<rect x="538.94" y="374.41" width="226" height="20" fill="#535461" fill-rule="nonzero"/>
<rect transform="translate(445.91 345.7) rotate(27.64) translate(-445.91 -345.7)" x="365.65" y="335.7" width="160.52" height="20" fill="#535461" fill-rule="nonzero"/>
<circle cx="521.94" cy="384.41" r="30" fill="#535461" fill-rule="nonzero"/>
<g transform="translate(238 101)" fill="#000" fill-rule="nonzero" opacity=".1">
<path d="m22.92 317.41c0-156.3 126.7-283 283-283 88.945-0.078706 172.74 41.728 226.16 112.84-48.16-87.52-141.16-146.84-248.16-146.84-156.3 0-283 126.7-283 283-0.091929 61.402 19.878 121.15 56.87 170.16-22.941-41.711-34.938-88.556-34.87-136.16z"/>
</g>
<path d="m783.42 176.23c-3.36-3.23-31.64 18-31.64 18s-10.07 1.84-7.67 8.75-10.55 45.61-10.55 45.61l-5.27-7.37c0.51-8.65-1.87-14.78-4.19-18.6-0.19-0.31-0.38-0.61-0.57-0.89l0.92-0.32c-0.35-4.72-7.9-11.91-11.91-15.43v-1.52c0.25-5.64 2.51-11.59 0-16.7-2.84-5.83-11.15-8.76-11.85-15.16-0.42-3.82 2.16-7.27 3.3-10.95 2.72-8.8-2.93-17.78-8.33-25.36-1.8291-2.8419-4.0549-5.4079-6.61-7.62-2.4342-1.7795-5.1072-3.2068-7.94-4.24-7.91-3.2-16-4.81-24.16-7-7.83-2.08-15.05-3.07-23-0.46-1.8866 0.50869-3.6092 1.4975-5 2.87-1.89 2.12-2.14 5.14-3.38 7.67-2 4.07-6.31 6.5-10.12 9.11s-7.63 6.19-7.65 10.69c0 6.39 7.3 10.41 9.74 16.36 2.28 5.54 0 11.71-1.27 17.55-0.53066 1.8875-0.58222 3.8776-0.15 5.79 0.50352 1.4253 1.2626 2.7469 2.24 3.9 1.51 2 3.13 3.86 4.74 5.76l-0.74 0.29c-13.42-1.38-22.05 15.66-22.05 15.66 0.62 0.13 1.21 0.28 1.79 0.45l-0.57 0.74c-4.055 5.2664-7.3692 11.064-9.85 17.23l-11 14.74s-2.4-36.86 3.36-45.15-5.27-13.36-5.27-13.36-24-26.72-27.33-24.42 8.15 31.33 18.22 35.94c0 0 1 9.21-1 15.2-1.21 3.79-7.67 43.77-7.67 43.77s-5.75 33.63 20.62 17c17.13-10.78 28.2-29.34 33.84-41 0.39333-0.82 0.76333-1.6033 1.11-2.35 0.26065 1.2367 0.43772 2.4895 0.53 3.75l1 38.53c0.25338 9.5302-1.827 18.978-6.06 27.52l-11.75 23.83 1.31 0.4-0.79 1.14c-7.74 11.39-20.9 37 6.19 50.05l36 4.61-1.92 9.21s-14.86 28.1-19.18 47.45c-2.6832 11.849-6.874 23.306-12.47 34.09l1.11 0.59c-0.23 0.26-0.47 0.53-0.7 0.81-2.1829 2.4551-3.6253 5.4786-4.16 8.72l-4.88 6.92s-1.92 28.56 1.92 35.48c2.1 3.78 9.07 6.18 15 7.58 8.8 2.09 15.9-7 11.23-14.49l-0.06-0.1h-0.09c-1-4.65-4.06-19.08-3.06-24.56 0.28-1.56 0.54-3.11 0.67-4.69 0.24068-2.0762 0.87176-4.0882 1.86-5.93 0.16-0.31 0.33-0.61 0.5-0.91l0.52 0.22c1.61 0.69 3.2 1.34 4.71 1.91-2.34 2.13-4 6.54-2 15.61 0 0 0.19 22.69 1.92 26.26s21.09 8.29 24.45 4.61-2.16-16.36-2.16-16.36l-0.17 0.12c-1.11-7.35-2.48-20.51 0.89-25.69 1.36-2.09 2.68-4.25 3.86-6.27l0.73-1.25c6.26 3.12 12.88 5.47 16.5 3.84 0 0 15.82-36.86 14.86-41.46s24.45-56.67 24.45-56.67 21.57-24-4.79-40.54c-8.37-5.27-14.47-8.81-18.9-11.2l-3.71-19.4c-1.9074-10.171-1.5661-20.635 1-30.66l4-15.26 0.33-1.3s10.07-20.73 9.59-30.41c-0.037128-0.75194 0.04729-1.5049 0.25-2.23 0.11 0.46 0.23 0.94 0.36 1.44 2.6456 10.061 6.1312 19.882 10.42 29.36 7.65 17.26 19 15.89 25.22 13.44 2.7046-1.0467 4.7005-3.3847 5.31-6.22 2.24-10.74 8.39-40.83 8.78-49.14 0.34864-6.498 1.1506-12.964 2.4-19.35 15.78-9.23 29.2-25.35 25.84-28.58z" fill="url(#a)" fill-rule="nonzero"/>
<path d="m666.03 471.45s-2.11 4.23-5 9.31c-1.13 2-2.39 4.15-3.68 6.22-4.57 7.31 0 30.6 0 30.6l-10 1.37-10-5-1.83-16.9v-12.36l11.4-12.75 5-5.52 14.11 5.03z" fill="#F8BDC5" fill-rule="nonzero"/>
<g transform="translate(646 466)" fill="#000" fill-rule="nonzero" opacity=".1">
<path d="m20.03 5.45s-2.11 4.23-5 9.31c-4.4149-2.3593-8.6828-4.9841-12.78-7.86l-0.88-0.62-0.47-0.34 5-5.52 14.13 5.03z"/>
</g>
<path d="m714.92 386.03s-24.21 51.61-23.29 56.18-14.16 41.11-14.16 41.11c-3.44 1.62-9.76-0.71-15.72-3.8-4.4945-2.3955-8.8361-5.0673-13-8l-0.88-0.62-0.53-0.38 39.74-110.08-35.16-25.79-2.6-1.91-15.72-11.6 48 8.68s1.67-0.21 10.5 4.73c4.24 2.37 10.13 5.92 18.27 11.26 25.09 16.47 4.55 40.22 4.55 40.22z" fill="#5E52AD" fill-rule="nonzero"/>
<g transform="translate(633 321)" fill="#000" fill-rule="nonzero" opacity=".03">
<path d="m81.92 65.03s-24.21 51.61-23.29 56.18-14.16 41.11-14.16 41.11c-3.44 1.62-9.76-0.71-15.72-3.8-4.4945-2.3955-8.8361-5.0673-13-8l-0.88-0.62-0.53-0.38 39.74-110.08-35.16-25.79-2.6-1.91-15.72-11.6 48 8.68s1.67-0.21 10.5 4.73c4.24 2.37 10.13 5.92 18.27 11.26 25.09 16.47 4.55 40.22 4.55 40.22z"/>
</g>
<path d="m641.37 480.58s-11.88-1.83-7.76 17.36c0 0 0.18 22.5 1.83 26s20.1 8.22 23.29 4.57-2.06-16.21-2.06-16.21-13.47 9.82-17.13-0.69 1.83-31.03 1.83-31.03z" fill="#5D3E53" fill-rule="nonzero"/>
<path d="m633.14 476.93c-1.2961 1.2342-2.3508 2.6992-3.11 4.32-0.9437 1.8356-1.5436 3.8284-1.77 5.88-0.12 1.56-0.37 3.11-0.63 4.65-1.14 6.51 3.23 25.8 3.23 25.8l-17.36 2.74-6.39-6.85-1.37-15.07c1.7053-5.167 2.6289-10.56 2.74-16 0-3.93 2-7.44 4-10 1.3559-1.7082 2.9101-3.249 4.63-4.59 0 0 19.69 5.92 16.03 9.12z" fill="#F8BDC5" fill-rule="nonzero"/>
<g transform="translate(612 467)" fill="#000" fill-rule="nonzero" opacity=".1">
<path d="m21.14 9.93c-1.2961 1.2342-2.3508 2.6992-3.11 4.32-7.11-3.21-14.58-7.26-17.3-8.76l-0.21-0.11c1.3559-1.7082 2.9101-3.249 4.63-4.59 0 0 19.65 5.94 15.99 9.14z"/>
</g>
<path d="m689.33 372.33s-11.41 21.47-18.73 39.28c-4.8 11.7-14.72 39.56-21 57.3l-0.92 2.62c-2.76 7.85-4.6 13.16-4.6 13.16-1.2167 0.008065-2.4275-0.17068-3.59-0.53-1.08-0.29-2.29-0.68-3.58-1.16l-1.45-0.55c-1.44-0.56-3-1.21-4.49-1.89-7.26-3.24-15-7.46-17.81-9l-1.06-0.59c5.3597-10.738 9.3605-22.102 11.91-33.83 4.11-19.18 18.27-47 18.27-47l1.83-9.14-34.26-4.57c-25.81-12.9-13.27-38.33-5.9-49.62 1.2567-1.9598 2.6153-3.8524 4.07-5.67l27.41 6s4.32 1.38 13.92 5.63l4.41 2c5.38 2.47 12 5.65 20 9.73 26.98 13.64 15.57 27.83 15.57 27.83z" fill="#5E52AD" fill-rule="nonzero"/>
<path d="m630.69 516.21c1.9989 3.3675 1.7768 7.6067-0.56306 10.747-2.3398 3.1402-6.3384 4.5654-10.137 3.6131-5.61-1.39-12.26-3.77-14.26-7.52-3.65-6.85-1.83-35.17-1.83-35.17l4.8-7.08s-2.51 31.29 3.43 34 18.5 1.27 18.5 1.27l0.06 0.14z" fill="#5D3E53" fill-rule="nonzero"/>
<path d="m635.55 119c-1.8244 0.50765-3.481 1.4913-4.8 2.85-1.8 2.1-2 5.1-3.22 7.61-1.9 4-6 6.45-9.64 9s-7.27 6.14-7.29 10.6c0 6.34 7 10.32 9.28 16.21 2.17 5.5 0 11.61-1.21 17.4-0.50458 1.8747-0.55259 3.843-0.14 5.74 0.47707 1.4072 1.2018 2.7178 2.14 3.87 4.41 6 9.89 11.32 12.84 18.15 2.24 5.19 2.86 10.92 3.45 16.55 0.85 8.1 1.7 16.35 0.16 24.35-0.14982 0.47855-0.14982 0.99145 0 1.47 0.2623 0.45887 0.67588 0.81236 1.17 1 5.88 2.8568 12.671 3.1914 18.803 0.92641s11.075-6.9334 13.687-12.926c2-4.53 2.77-10 6.73-12.94 0.46215-0.38226 1.0179-0.63427 1.61-0.73 0.93376 0.025759 1.8388 0.32859 2.6 0.87 5.14 2.78 11.37 2.86 17.1 1.72 3.46-0.69 7-1.92 9.29-4.62 4.51-5.36 2-13.37 2.3-20.36 0.24-5.59 2.39-11.49 0-16.55-2.7-5.78-10.63-8.68-11.29-15-0.4-3.78 2.06-7.21 3.15-10.85 2.59-8.73-2.79-17.63-7.93-25.14-1.7291-2.8014-3.8469-5.3434-6.29-7.55-2.3054-1.7556-4.8515-3.1701-7.56-4.2-7.53-3.17-15.21-4.77-23-6.93-7.46-2.13-14.33-3.12-21.94-0.52z" fill="#85555C" fill-rule="nonzero"/>
<path d="m673.8 249.46h-26.5v-42.94c0.78729-4.124 1.2487-8.3036 1.38-12.5v-4.3c-0.25-5.12-1.31-10.23-4.09-13.35-7.31-8.22 23.75-6.85 23.75-6.85 0.9531 3.7746 2.19 7.4718 3.7 11.06 2.2502 5.599 5.2437 10.87 8.9 15.67 3.2169 4.2714 7.3386 7.7785 12.07 10.27 18.24 9.14-19.21 42.94-19.21 42.94z" fill="#F8BDC5" fill-rule="nonzero"/>
<g transform="translate(643 169)" fill="#000" fill-rule="nonzero" opacity=".1">
<path d="m29.01 11.58c-5.4838 7.1501-14.48 10.67-23.36 9.14-0.25-5.12-1.31-10.23-4.09-13.35-7.31-8.22 23.75-6.85 23.75-6.85 0.9531 3.7746 2.19 7.4718 3.7 11.06z"/>
</g>
<circle cx="652.78" cy="164.51" r="24.21" fill="#F8BDC5" fill-rule="nonzero"/>
<path d="m753.27 206.07c-1.1887 6.3351-1.9504 12.743-2.28 19.18-0.37 8.23-6.23 38.07-8.37 48.72-0.54822 2.7737-2.4473 5.0894-5.06 6.17-5.94 2.43-16.74 3.79-24-13.32-4.0934-9.4148-7.4143-19.147-9.93-29.1-0.88999-3.3456-1.5581-6.7463-2-10.18l16-8.68c1.506 1.409 2.7815 3.0455 3.78 4.85 2.21 3.79 4.48 9.87 4 18.44l5 7.31s12.33-38.37 10-45.22 7.31-8.68 7.31-8.68 26.95-21 30.15-17.81-9.53 19.18-24.6 28.32z" fill="#F8BDC5" fill-rule="nonzero"/>
<path d="m622.18 224.34c-1.2484 3.5729-2.6837 7.0778-4.3 10.5-5.38 11.57-15.92 30-32.24 40.66-25.12 16.44-19.64-16.9-19.64-16.9s6.15-39.64 7.31-43.39c1.83-5.94 0.91-15.07 0.91-15.07-9.59-4.57-20.55-33.34-17.36-35.63s26 24.21 26 24.21 10.51 5 5 13.25-3.2 44.76-3.2 44.76l10.57-14.59c2.3514-6.088 5.5096-11.833 9.39-17.08 2-2.73 3.4-4.38 3.4-4.38l14.16 13.66z" fill="#F8BDC5" fill-rule="nonzero"/>
<g transform="translate(701 218)" fill="#000" fill-rule="nonzero" opacity=".1">
<path d="m20.42 5.71c-3.36 1.24-16.37 6.49-17.81 14-0.88999-3.3456-1.5581-6.7463-2-10.18l16-8.68c1.5175 1.4097 2.8032 3.0499 3.81 4.86z"/>
</g>
<g transform="translate(604 210)" fill="#000" fill-rule="nonzero" opacity=".1">
<path d="m18.18 14.34c-1.2484 3.5729-2.6837 7.0778-4.3 10.5-0.62-4.52-3.17-16.08-13.26-19.81 2-2.73 3.4-4.38 3.4-4.38l14.16 13.69z"/>
</g>
<g transform="translate(647 194)" fill="#000" fill-rule="nonzero" opacity=".1">
<path d="m26.8 55.46h-26.5v-42.94c0.78729-4.124 1.2487-8.3036 1.38-12.5 5.45 5.26 4.1 13.41 4.1 13.41l14.16 32 6.86-28.29-2.28-3.65 9.4-11.18c3.2169 4.2714 7.3386 7.7785 12.07 10.27 18.26 9.08-19.19 42.88-19.19 42.88z"/>
</g>
<g transform="translate(603 321)" fill="#000" fill-rule="nonzero" opacity=".1">
<path d="m89.52 16.14s-20.76-1.65-38.77-2.43l-1.81-0.08c-2.56-0.1-5-0.18-7.39-0.24-17.48-0.42-37.25-6.53-40.61-7.6 1.2606-1.9532 2.6224-3.8391 4.08-5.65l27.41 6s4.32 1.38 13.92 5.63l-15.75-11.63 48 8.68s1.67-0.21 10.5 4.73l0.42 2.59z"/>
</g>
<path d="m673.8 212.92l-2.28-3.65 10.14-12.13s20.91 10.25 26.39 8c0 0 13.25 11 13.7 17.36 0 0-19.18 6.39-18.73 16s-9.1 30.14-9.1 30.14l-4 16.42c-2.4615 9.9511-2.8022 20.309-1 30.4l3.65 20.33s-28.78-2.28-48-2.74-41.11-7.76-41.11-7.76l11.21-23.59c4.0424-8.5132 6.0225-17.859 5.78-27.28l-1-38.19s-0.91-19.18-16-22.38c0 0 8.22-16.9 21-15.53 0 0 18.62-7.77 24.15-2.52s4.17 13.48 4.17 13.48l14.16 32 6.87-28.36z" fill="#ED677B" fill-rule="nonzero"/>
<g transform="translate(628 129)" fill="#000" fill-rule="nonzero" opacity=".1">
<path d="m7.31 30.52c3.67 0 6.55-3.89 10.22-3.69 1.9 0.1 3.53 1.31 5.1 2.4 5.9325 4.1081 12.534 7.1535 19.51 9 2.71 0.72 5.58 1.26 8.3 0.6s5.27-2.8 5.58-5.59c0.076141-1.2297-0.086867-2.4624-0.48-3.63-3.0792-10.728-10.046-19.923-19.54-25.79-3.8-2.33-8.44-4.11-12.65-2.65-3.8 1.31-6.25 4.87-9 7.8-2.0725 2.1939-4.4263 4.1038-7 5.68-2 1.21-5 2-6.15 4.22-2.17 4.14 1.24 11.61 6.11 11.65z"/>
</g>
<path d="m635.31 158.61c3.67 0 6.55-3.89 10.22-3.69 1.9 0.1 3.53 1.31 5.1 2.4 5.9325 4.1081 12.534 7.1535 19.51 9 2.71 0.72 5.58 1.26 8.3 0.6s5.27-2.8 5.58-5.59c0.076141-1.2297-0.086867-2.4624-0.48-3.63-3.0792-10.728-10.046-19.923-19.54-25.79-3.8-2.33-8.44-4.11-12.65-2.65-3.8 1.31-6.25 4.87-9 7.8-2.0725 2.1939-4.4263 4.1038-7 5.68-2 1.21-5 2-6.15 4.22-2.17 4.18 1.24 11.6 6.11 11.65z" fill="#85555C" fill-rule="nonzero"/>
<path d="m624.24 262.93s22.38 8.22 37 1.83l7.31 0.46s12.15 8.52 25 4.71" fill="#000" fill-rule="nonzero" opacity=".05"/>
<path d="m730.21 249.23s-3.65 8.68-1.83 11.42" fill="#000" fill-rule="nonzero" opacity=".05"/>
<path d="m584.5 246.49s1.83 8.68 0 11.42" fill="#000" fill-rule="nonzero" opacity=".05"/>
</g></svg>