<svg fill="#000000" xmlns="http://www.w3.org/2000/svg" xmlns:xlink="http://www.w3.org/1999/xlink" version="1.1" x="0px" y="0px" viewBox="0 0 100 100" style="enable-background:new 0 0 100 100;" xml:space="preserve"><path d="M96.1,50c0-1.1-0.5-2.2-1.3-3l-7.7-7l3.2-9.9c0.3-1.1,0.2-2.2-0.3-3.2c-0.6-1-1.5-1.7-2.6-1.9l-10.1-2.2l-2.2-10.1  c-0.2-1.1-0.9-2.1-1.9-2.6c-1-0.6-2.1-0.7-3.2-0.3l-9.9,3.2c0,0,0,0,0,0l-7-7.7c-0.8-0.8-1.8-1.3-3-1.3h0c-1.1,0-2.2,0.5-3,1.3  l-7,7.7l-9.9-3.2c-1.1-0.3-2.2-0.2-3.2,0.3c-1,0.6-1.7,1.5-1.9,2.6l-2.2,10.1l-10.1,2.2c-1.1,0.2-2.1,0.9-2.6,1.9  c-0.6,1-0.7,2.2-0.3,3.2l3.2,9.9l-7.7,7c-0.8,0.8-1.3,1.8-1.3,3c0,1.1,0.5,2.2,1.3,3l7.7,7l-3.2,9.9c-0.3,1.1-0.2,2.2,0.3,3.2  c0.6,1,1.5,1.7,2.6,1.9l10.1,2.2l2.2,10.1c0.2,1.1,0.9,2.1,1.9,2.6c1,0.6,2.1,0.7,3.2,0.3l9.9-3.2l7,7.7c0.8,0.8,1.8,1.3,3,1.3  c1.1,0,2.2-0.5,3-1.3l7-7.7l9.9,3.2c1.1,0.3,2.2,0.2,3.2-0.3c1-0.6,1.7-1.5,1.9-2.6l2.2-10.1l10.1-2.2c1.1-0.2,2.1-0.9,2.6-1.9  s0.7-2.2,0.3-3.2l-3.2-9.9l7.7-7C95.6,52.2,96.1,51.1,96.1,50z M84.4,57c-1.2,1.1-1.6,2.7-1.1,4.2l3.2,9.9l-10.1,2.2  c-1.5,0.3-2.7,1.5-3.1,3.1L71,86.4l-9.9-3.2c-1.5-0.5-3.1,0-4.2,1.1l-7,7.7l-7-7.7c-0.8-0.8-1.9-1.3-3-1.3c-0.4,0-0.8,0.1-1.2,0.2  L29,86.4l-2.2-10.1c-0.3-1.5-1.5-2.7-3.1-3.1L13.6,71l3.2-9.9c0.5-1.5,0-3.1-1.1-4.2l-7.7-7l7.7-7c1.2-1.1,1.6-2.7,1.1-4.2L13.6,29  l10.1-2.2c1.5-0.3,2.7-1.5,3.1-3.1L29,13.6l9.9,3.2c1.5,0.5,3.1,0,4.2-1.1l7-7.7l7,7.7c1.1,1.2,2.7,1.6,4.2,1.1l9.9-3.2l2.2,10.1  c0.3,1.5,1.5,2.7,3.1,3.1L86.4,29l-3.2,9.9c-0.5,1.5,0,3.1,1.1,4.2l7.7,7L84.4,57z M61.3,35.2l-17,17l-5.7-5.7  c-1.1-1.1-2.6-1.8-4.2-1.8c-1.6,0-3.1,0.6-4.2,1.8c-1.1,1.1-1.8,2.6-1.8,4.2c0,1.6,0.6,3.1,1.8,4.2l9.9,9.9c1.2,1.2,2.7,1.8,4.2,1.8  c1.5,0,3.1-0.6,4.2-1.8l21.2-21.2c2.3-2.3,2.3-6.1,0-8.5C67.5,32.8,63.7,32.8,61.3,35.2z M67,40.8L45.8,62c-0.8,0.8-2,0.8-2.8,0  L33,52.1c-0.4-0.4-0.6-0.9-0.6-1.4s0.2-1,0.6-1.4c0.4-0.4,0.9-0.6,1.4-0.6c0.5,0,1,0.2,1.4,0.6l7.1,7.1c0.8,0.8,2.1,0.8,2.8,0  L64.1,38c0.8-0.8,2-0.8,2.8,0C67.8,38.8,67.8,40,67,40.8z"></path></svg>