<svg fill="#000000" xmlns="http://www.w3.org/2000/svg" xmlns:xlink="http://www.w3.org/1999/xlink" viewBox="0 0 24 24" version="1.1" x="0px" y="0px"><g stroke="none" stroke-width="1" fill="none" fill-rule="evenodd"><g transform="translate(-333.000000, -381.000000)" fill="#000000"><g transform="translate(335.000000, 385.000000)"><path d="M1.00468445,12 C1.00362504,12 1,1.00034732 1,1.00034732 L11.9996527,1 L11.9996529,12 L6.5,12 L6.5,13 L14.5,13 L14.5,12 L13,12 L13,1.00034732 C13,0.451900767 12.5511894,0 11.9996527,0 L1.00034732,0 C0.451900767,0 0,0.448810568 0,1.00034732 L0,11.9996527 C0,12.5490625 0.45173595,13 1.00468445,13 L2.5,13 L2.5,12 L1.00468445,12 Z"></path><path d="M17.0023012,3 C17.102072,3 17.2758282,3.09820558 17.3270318,3.18354507 L19.8154752,7.33095069 C19.9116688,7.49127336 20,7.8084642 20,7.99769878 L20,12.0023012 C20,12.005438 18.5,12 18.5,12 L18.5,13 L19.9953156,13 C20.5582719,13 21,12.5571616 21,12.0023012 L21,7.99769878 C21,7.62673791 20.8621653,7.13178353 20.6729682,6.81645493 L18.1845248,2.66904931 C17.9524499,2.28225789 17.4530482,2 17.0023012,2 L12.5,2 L12.5,3 L17.0023012,3 Z"></path><path d="M15.995389,4 C15.4458737,4 15,4.43863313 15,4.99047852 L15,8.00952148 C15,8.55968472 15.4418465,9 15.9976988,9 L20.5,9 L20.5,8 L15.9976988,8 C15.9933556,8 16,4.99047852 16,4.99047852 C16,4.99461576 18.5,5 18.5,5 L18.5,4 L15.995389,4 Z"></path><path d="M4.5,15 C5.88071187,15 7,13.8807119 7,12.5 C7,11.1192881 5.88071187,10 4.5,10 C3.11928813,10 2,11.1192881 2,12.5 C2,13.8807119 3.11928813,15 4.5,15 Z M4.5,14 C5.32842712,14 6,13.3284271 6,12.5 C6,11.6715729 5.32842712,11 4.5,11 C3.67157288,11 3,11.6715729 3,12.5 C3,13.3284271 3.67157288,14 4.5,14 Z"></path><path d="M16.5,15 C17.8807119,15 19,13.8807119 19,12.5 C19,11.1192881 17.8807119,10 16.5,10 C15.1192881,10 14,11.1192881 14,12.5 C14,13.8807119 15.1192881,15 16.5,15 Z M16.5,14 C17.3284271,14 18,13.3284271 18,12.5 C18,11.6715729 17.3284271,11 16.5,11 C15.6715729,11 15,11.6715729 15,12.5 C15,13.3284271 15.6715729,14 16.5,14 Z"></path></g></g></g></svg>