<?xml version="1.0" encoding="UTF-8"?>
<svg version="1.1" viewBox="0 0 1129 769" xmlns="http://www.w3.org/2000/svg">
<defs>
<linearGradient id="a" x1="51781%" x2="64731%" y1="47214%" y2="47214%">
<stop stop-color="#808080" stop-opacity=".25" offset="0"/>
<stop stop-color="#808080" stop-opacity=".12" offset=".54"/>
<stop stop-color="#808080" stop-opacity=".1" offset="1"/>
</linearGradient>
</defs>
<g fill="none" fill-rule="evenodd">
<g transform="translate(-1 -15)">
<path d="m794.53 235.6c0.86521-1.2321 1.3423-2.6947 1.37-4.2 0-9.12-18.58-16.5-41.5-16.5s-41.5 7.38-41.5 16.5c0.041536 1.7053 0.64236 3.3496 1.71 4.68-25.52 2.85-42.71 8.19-42.71 14.32 0 9.11 38 16.5 85 16.5s85-7.39 85-16.5c-0.05-6.45-19.37-12.1-47.37-14.8z" fill="#6C63FF" fill-rule="nonzero" opacity=".1"/>
<g transform="translate(0 98)" fill-rule="nonzero" opacity=".2">
<path d="m167.46 578.75c0.39497 2.2587 0.98039 4.48 1.75 6.64 14.207-4.5733 28.56-8.9067 43.06-13-0.08-0.6-0.17-1.22-0.28-1.84-1.027-6.3685-3.7099-12.355-7.78-17.36-5.29-6.33-12.45-9.71-19.63-8.38s-12.76 7-15.61 14.84c-2.1573 6.1267-2.6778 12.71-1.51 19.1z" fill="#3F3D56"/>
<ellipse transform="translate(183.48 538.15) rotate(-8.99) translate(-183.48 -538.15)" cx="183.48" cy="538.15" rx="22.64" ry="30.29" fill="#3F3D56"/>
<ellipse transform="translate(180.11 502.4) rotate(-9.1805) translate(-180.11 -502.4)" cx="180.11" cy="502.4" rx="22.704" ry="30.376" fill="#3F3D56"/>
<ellipse transform="translate(170.88 465.21) rotate(-8.99) translate(-170.88 -465.21)" cx="170.88" cy="465.21" rx="22.64" ry="30.29" fill="#3F3D56"/>
<ellipse transform="translate(164.59 428.73) rotate(-8.99) translate(-164.59 -428.73)" cx="164.59" cy="428.73" rx="22.64" ry="30.29" fill="#3F3D56"/>
<path d="m204.82 163.81c2.3569-4.523 4.405-9.2003 6.13-14l-60.2 0.94 63.36-11.17c3.975-15.509 4.6157-31.685 1.88-47.46-2.3868-13.96-7.4022-27.341-14.78-39.43l-77.11 60.71 68.12-73.33c-24.08-29.19-62.3-44.76-101.74-37.5-58.95 10.82-98.22 68.5-87.81 128.8 4.1089 24.359 16.246 46.644 34.48 63.31-3.6867 7.0531-6.6132 14.478-8.73 22.15l82.92 26.41-85.81-12.91c-1.7875 11.965-1.6457 24.14 0.42 36.06 4.1089 24.359 16.246 46.644 34.48 63.31-11.511 22.024-15.437 47.229-11.17 71.71 10.41 60.31 66.6 100.4 125.51 89.55s98.22-68.52 87.81-128.83c-4.1132-24.355-16.25-46.635-34.48-63.3 11.509-22.028 15.435-47.235 11.17-71.72-4.1051-24.351-16.231-46.631-34.45-63.3z" fill="#6C63FF"/>
<path d="m25.98 266.39c4.1089 24.359 16.246 46.644 34.48 63.31-11.511 22.024-15.437 47.229-11.17 71.71 10.41 60.31 66.6 100.4 125.51 89.55s98.22-68.52 87.81-128.83c-4.1132-24.355-16.25-46.635-34.48-63.3 11.09-21.22-204.27-44.69-202.15-32.44z" fill="#000" opacity=".1"/>
</g>
<path d="m114.85 593.4c0 52.31 32.81 94.63 73.36 94.63" fill="#46455B" fill-rule="nonzero"/>
<path d="m188.21 688.03c0-52.89 36.62-95.69 81.88-95.69" fill="#6C63FF" fill-rule="nonzero"/>
<path d="m141.43 598.14c0 49.69 20.92 89.89 46.78 89.89" fill="#6C63FF" fill-rule="nonzero"/>
<path d="m188.21 688.03c0-67.58 42.33-122.27 94.64-122.27" fill="#46455B" fill-rule="nonzero"/>
<ellipse cx="528.85" cy="727.56" rx="511" ry="16.99" fill="#6C63FF" fill-rule="nonzero" opacity=".1"/>
<ellipse cx="179.74" cy="698.3" rx="18.68" ry="3.16" fill="#6C63FF" fill-rule="nonzero" opacity=".1"/>
<path d="m167.19 683.62s10.66-0.32 13.87-2.61 16.38-5 17.18-1.35 16 18.24 4 18.33-27.94-1.87-31.15-3.82-3.9-10.55-3.9-10.55z" fill="#A8A8A8" fill-rule="nonzero"/>
<path d="m202.44 696.72c-12 0.09-27.95-1.88-31.15-3.83-2.44-1.48-3.42-6.82-3.74-9.28h-0.36s0.68 8.6 3.88 10.55 19.13 3.92 31.15 3.82c3.47 0 4.67-1.26 4.61-3.09-0.48 1.12-1.81 1.81-4.39 1.83z" fill="#000" fill-rule="nonzero" opacity=".2"/>
<path d="m688.53 198.95c-14.35-70.72-75.85-124-150.67-124-59.45 0-110.7 33.82-136.33 83-61.5 6.15-109.67 58.42-109.67 122 0 67.64 55.34 123 123 123h266.5c56.37 0 102.5-46.13 102.5-102.5 0.22478-53.783-41.639-98.356-95.33-101.5zm-117.88 60.45v77.9h-65.6v-77.9h-69.7l102.5-102.45 102.5 102.5-69.7-0.05z" fill="#6C63FF" fill-rule="nonzero"/>
<path d="m583.22 247.66c-2.5109-2.0754-6.0885-2.2504-8.79-0.43-2 1.48-2.87 3.94-3.69 6.26-1.2 3.43-3.14 6.76-3.46 10.39-0.89 10-7.9 18.41-10 28.21-0.77 3.5-0.92 7.18-2.37 10.45-0.69428 1.4354-1.4966 2.8161-2.4 4.13-3.5164 5.5285-6.5285 11.362-9 17.43-1.74 0.53-3.17 2.2-4.56 3.53-1.7829 1.7052-3.9156 3.0018-6.25 3.8-0.95156 0.21274-1.8391 0.64796-2.59 1.27-1 1.06-1 2.77-1.83 4-0.59011 0.80566-1.3744 1.449-2.28 1.87-0.061253-0.2841-0.10798-0.57114-0.14-0.86-0.21-1.53-0.38-3.06-0.54-4.59 4.8098-7.0184 3.8095-16.491-2.36-22.35-0.1851-2.3873-0.1147-4.7876 0.21-7.16 0.30081-1.164-0.087144-2.3977-1-3.18-0.49-0.31-1.09-0.38-1.61-0.64-0.75402-0.50565-1.3943-1.163-1.88-1.93-2.9016-3.2876-7.7502-4.0056-11.48-1.7-2.8 1.87-4.28 5.19-6.67 7.58-1.24 1.23-2.71 2.2-3.94 3.43-2.4599 2.6373-4.0575 5.9616-4.58 9.53-0.51335 3.5489-0.65745 7.1414-0.43 10.72-0.024877 1.0848 0.13057 2.1662 0.46 3.2 0.35651 0.84798 0.84973 1.6317 1.46 2.32 2.9301 3.822 6.8034 6.8166 11.24 8.69 0.030782 0.212 0.047486 0.4258 0.05 0.64 0 0.33 0 0.66-0.08 1l-0.49-0.08c-1.8-0.22-3.7 0-5.37-0.69-2.85-1.23-4-4.85-6.81-6.27-0.23328-0.12291-0.47771-0.22336-0.73-0.3-0.66635-4.6607-2.0388-9.1927-4.07-13.44-1-2-2.13-4.08-2.25-6.34 0.062076-2.1012 0.53426-4.17 1.39-6.09 2.2604-6.869 4.0447-13.886 5.34-21 0.90667-4.46 1.82-8.92 2.74-13.38 1.2414-1.1289 2.3366-2.4089 3.26-3.81 1.927-2.7868 3.0544-6.048 3.26-9.43 0.1802-3.4064-1.0078-6.7437-3.3-9.27-1.0133-1.2335-2.5141-1.9638-4.11-2-1.374 0.16203-2.6194 0.88612-3.44 2-1.2215 1.7099-2.1041 3.638-2.6 5.68-1 3.32-2 6.78-1.55 10.22 0.41 2.85 1.8 5.94 0.38 8.44-4.68 8.19-7.91 17.4-11.38 26.18-0.89496 2.1065-1.6238 4.2798-2.18 6.5-0.69475 3.578-0.81626 7.2438-0.36 10.86 0.82326 6.7812 2.1299 13.495 3.91 20.09 0.73 3 1.59 6.17 3.31 8.64-0.61032 3.3506-0.75836 6.7691-0.44 10.16 0.040723 0.78366 0.24511 1.5501 0.6 2.25 0.57366 0.80543 1.2686 1.5172 2.06 2.11 2.1704 2.019 3.3625 4.8772 3.27 7.84 0.048276 2.7383 0.57977 5.4466 1.57 8 2.39 7.13 4.79 14.26 6.88 21.49 0.45308 1.3385 0.70253 2.7374 0.74 4.15 0 2-0.95 4-0.51 6 0.3355 0.90378 0.60946 1.8292 0.82 2.77 0.016035 0.72671-0.078374 1.4516-0.28 2.15-1.3 5.65-5.06 18.68-4.41 24.45l1.29-0.45c-0.55 7.64-2.91 15.12-3.77 22.76-0.56508 5.5625-0.50471 11.171 0.18 16.72 0.37279 2.4805 0.58656 4.9822 0.64 7.49 0 2.25-0.36 4.47-0.45 6.71-0.045063 3.009 0.13208 6.0171 0.53 9 0.39158 4.6797 1.137 9.3229 2.23 13.89 2.08 7.76 0.68 15.84 0.91 23.88 0.26846 5.6086 0.2117 11.228-0.17 16.83-0.21 2.37-0.54 4.73-0.61 7.11-0.21 7.06 1.88 14.09 1.14 21.11-0.35 3.29-1.19 7 0.88 9.59 0.66 0.81 1.55 1.39 2.25 2.16 0.77466 0.72864 1.1057 1.8129 0.87 2.85-0.27 0.79-1 1.37-1.17 2.2-0.19 1.3 1.24 2.2 2.48 2.62l0.35 0.1c-0.052514 0.87745 0.27116 1.7357 0.89 2.36 0.77545 0.5924 1.6994 0.9592 2.67 1.06l16 3.1c3.57 0.69 7.45 1.34 10.8 0.13 0.12922 0.48393 0.38862 0.92318 0.75 1.27 0.77262 0.5907 1.6929 0.95742 2.66 1.06l16 3.1c4.08 0.79 8.56 1.52 12.2-0.5 1.0494-0.56035 1.9351-1.384 2.57-2.39 1.0341-1.9294 1.1622-4.2172 0.35-6.25-0.30653-1.0289-0.92933-1.9351-1.78-2.59-1.1354-0.62386-2.4285-0.90194-3.72-0.8-1.0965 0.079875-2.1969-0.087581-3.22-0.49-0.31377-0.16457-0.58703-0.39684-0.8-0.68 0.8-1 1.57-2 2.3-3-0.69-0.16-1-1.11-1.17-1.81-2.06-10.38 0.83-21 1.25-31.6 0.21277-5.3071-0.20346-10.621-1.24-15.83-0.39-2-0.86-3.9-1.14-5.88-1.47-10.33 2.46-20.82 1.21-31.18-0.59-4.84 1.49-9.9 2.23-14.72 0.65-4.28 0.23-8.64-0.19-13l-3.31-34c-0.45-4.59-0.92-9.29-2.88-13.47-0.97881-2.3371-1.4427-4.8576-1.36-7.39 4-2.29 7.68-5.44 12.2-5.45 0.87-3.3-1.63-13.71-3.09-16.79-5.6948-12.143-7.9467-25.616-6.51-38.95 0.53-4.79-1.38-9.62-0.74-14.4 0.095769-1.1195 0.40823-2.2097 0.92-3.21 0.52436-1.0072 1.5284-1.6753 2.66-1.77-0.28-2.87-0.65-5.76-1.14-8.63 1.6458-1.6792 2.998-3.6229 4-5.75 2.08-4.35 3-9.15 4.21-13.81 2.2-8.21 5.56-16.05 8.22-24.11s2.14-16.58 4.05-24.86c1.0785-4.5616 3.8716-8.5329 7.8-11.09 1.52-1 3.25-1.77 4.3-3.25 0.7914-1.2166 1.2086-2.6386 1.2-4.09 0.18226-3.1822-1.095-6.2742-3.47-8.4zm-61.12 349.88c0.3-0.41 0.59-0.82 0.86-1.25-1.06-0.06-2.4-0.68-2.53-1.74-0.032027-1.0612 0.0858-2.1217 0.35-3.15 0.30129-1.8383 0.18855-3.7208-0.33-5.51-0.37-1.24-0.92-2.43-1.32-3.67-0.39128-1.3841-0.70181-2.7898-0.93-4.21-0.98027-5.0793-2.5058-10.038-4.55-14.79-2-4.61-0.45-9.64-0.43-14.67 0-2.37-0.36-4.79 0.24-7.09 0.35-1.36 1-2.62 1.37-4 0.82-3.17-0.21-6.5-1.22-9.61 3.95-9.34 4.48-20 5.29-30.16 0.45333-5.68 0.90667-11.347 1.36-17 0.2-2.53 0.43-5.16 1.76-7.32 2.3621 7.2225 3.7707 14.723 4.19 22.31 0.041513 2.1928 0.29604 4.3764 0.76 6.52 0.63 2.37 1.86 4.52 2.68 6.82 1.82 5.06 1.63 10.59 2.45 15.9 0.33 2.15 0.83 4.27 1.15 6.42 1.38 9.49-0.85 19.1-3.07 28.43-1.36 5.72-1.14 12.05-1.45 17.92-0.29 5.63-0.59 11.26-0.45 16.9 0 1.72 0.11 3.48 0.09 5.23-0.54417-0.065134-1.092-0.095196-1.64-0.09-1.0965 0.079875-2.1969-0.087581-3.22-0.49-0.63341-0.40844-1.1257-1.002-1.41-1.7z" fill="url(#a)" fill-rule="nonzero"/>
<path d="m556.98 605.34c1.2901-0.099205 2.5815 0.17505 3.72 0.79 0.84554 0.65554 1.4673 1.5568 1.78 2.58 0.80783 2.0208 0.67593 4.2961-0.36 6.21-0.63584 1.0002-1.5217 1.8171-2.57 2.37-3.64 2-8.12 1.29-12.2 0.51l-16-3.07c-0.96441-0.084196-1.8876-0.42995-2.67-1-0.9965-1.0954-1.1854-2.7035-0.47-4 0.6976-1.2625 1.7375-2.3024 3-3 4.6-2.86 10-4 15.28-4.61 2-0.24 3.87-0.88 5.37 0.51 0.8 0.73 0.76 1.64 1.88 2.23 1.0313 0.3974 2.1378 0.56132 3.24 0.48z" fill="#3F3D56" fill-rule="nonzero"/>
<path d="m526.75 599.84c1.2869-0.09954 2.5753 0.17479 3.71 0.79 0.85146 0.64992 1.4747 1.5533 1.78 2.58 0.81656 2.0184 0.68819 4.2961-0.35 6.21-0.63866 0.99781-1.5238 1.8141-2.57 2.37-3.64 2-8.12 1.29-12.21 0.51l-16-3.08c-0.96452-0.083697-1.8878-0.4295-2.67-1-0.99978-1.0931-1.1928-2.7014-0.48-4 0.71931-1.2631 1.7752-2.3017 3.05-3 4.59-2.85 10-3.95 15.28-4.6 2-0.25 3.87-0.88 5.37 0.5 0.79 0.73 0.76 1.64 1.87 2.23 1.0236 0.40045 2.1236 0.56784 3.22 0.49z" fill="#3F3D56" fill-rule="nonzero"/>
<path d="m522.81 429.84c-9.2488 0.037731-18.483 0.7429-27.63 2.11-0.60466 0.056031-1.1959 0.21145-1.75 0.46-1.94 1-2 3.72-1.95 5.9 0.13 8.87-2.9 17.46-3.9 26.26-0.57349 5.5252-0.51646 11.098 0.17 16.61 0.3629 2.4682 0.57663 4.9561 0.64 7.45 0 2.22-0.37 4.43-0.46 6.66-0.046438 2.9754 0.12737 5.9502 0.52 8.9 0.3917 4.65 1.1372 9.2633 2.23 13.8 2.07 7.71 0.67 15.74 0.89 23.72 0.26685 5.5722 0.2034 11.155-0.19 16.72-0.21 2.36-0.54 4.7-0.61 7.07-0.21 7 1.87 14 1.13 21-0.35 3.26-1.2 7 0.87 9.52 0.66 0.8 1.55 1.38 2.24 2.15 0.76789 0.72043 1.1019 1.7907 0.88 2.82-0.28 0.79-1.05 1.37-1.17 2.19-0.2 1.29 1.23 2.19 2.47 2.6 9.7013 2.9767 20.204-0.79833 25.79-9.27-1.06-0.06-2.4-0.68-2.53-1.73-0.032017-1.0546 0.085825-2.1085 0.35-3.13 0.30657-1.8247 0.19372-3.6953-0.33-5.47-0.36-1.24-0.92-2.42-1.31-3.65-0.3902-1.3743-0.70072-2.7699-0.93-4.18-0.97386-5.0506-2.4962-9.9798-4.54-14.7-2-4.58-0.44-9.58-0.42-14.56 0-2.36-0.35-4.77 0.24-7.05 0.35-1.36 1-2.61 1.38-4 0.82-3.15-0.21-6.45-1.22-9.54 4-9.28 4.5-19.92 5.31-30l1.37-17c0.2-2.51 0.44-5.13 1.76-7.27 2.3619 7.1711 3.7706 14.622 4.19 22.16 0.033191 2.1829 0.28444 4.357 0.75 6.49 0.63 2.34 1.85 4.48 2.68 6.77 1.81 5 1.62 10.51 2.44 15.79 0.33 2.14 0.82 4.24 1.14 6.38 1.38 9.43-0.86 19-3.09 28.25-1.36 5.68-1.15 12-1.46 17.81-0.3 5.59-0.6 11.18-0.46 16.78 0.12 5.15 0.52 10.68-2.25 15 3.1 1.58 6.3 3.19 9.76 3.49 4.0256 0.2137 7.999-0.98927 11.23-3.4 3.1979-2.406 5.9783-5.3216 8.23-8.63-0.7-0.16-1-1.11-1.17-1.8-2.06-10.31 0.84-20.9 1.27-31.4 0.21196-5.2702-0.20092-10.547-1.23-15.72-0.39-2-0.87-3.89-1.15-5.85-1.45-10.26 2.48-20.69 1.24-31-0.58-4.82 1.5-9.84 2.24-14.64 0.65-4.25 0.24-8.58-0.18-12.86l-3.29-33.75c-0.44-4.57-0.91-9.24-2.87-13.39-2.34-5-0.89-11.16-1.14-16.67-8.2603 3.6362-17.157 5.6071-26.18 5.8z" fill="#46455B" fill-rule="nonzero"/>
<path d="m542.13 329.89c2.7217-7.4333 6.2565-14.543 10.54-21.2 0.90325-1.307 1.7056-2.681 2.4-4.11 1.46-3.24 1.61-6.9 2.38-10.38 2.15-9.74 9.17-18.1 10.07-28 0.32-3.61 2.26-6.92 3.47-10.33 0.81-2.31 1.73-4.75 3.69-6.22 2.7018-1.8017 6.2625-1.6313 8.78 0.42 2.425 2.1 3.7367 5.2075 3.55 8.41 0.003926 1.4413-0.41315 2.8524-1.2 4.06-1.06 1.47-2.78 2.26-4.3 3.23-3.9199 2.527-6.7167 6.4661-7.81 11-1.92 8.23-1.4 16.68-4.07 24.69s-6 15.81-8.23 24c-1.25 4.63-2.14 9.4-4.23 13.72s-5.64 8.22-10.31 9.33c-0.29437-2.9735-1.0642-5.8805-2.28-8.61-1.4-3.16-3.63-6.8-2.45-10.01z" fill="#A0616A" fill-rule="nonzero"/>
<path d="m491.82 341.3c-0.38615-5.843-1.8936-11.557-4.44-16.83-1-2-2.12-4-2.24-6.29 0.061079-2.0884 0.53342-4.1443 1.39-6.05 2.2641-6.8381 4.0517-13.825 5.35-20.91l2.76-13.3c1.235-1.1212 2.3266-2.3908 3.25-3.78 1.9304-2.7635 3.0618-6.0055 3.27-9.37 0.18628-3.3905-0.99942-6.7133-3.29-9.22-1.0254-1.21-2.5241-1.9174-4.11-1.94-1.374 0.16203-2.6194 0.88612-3.44 2-1.2017 1.6856-2.0675 3.5869-2.55 5.6-1 3.3-2 6.73-1.56 10.15 0.4 2.83 1.8 5.9 0.37 8.38-4.69 8.15-7.92 17.29-11.4 26-0.89008 2.0937-1.6156 4.2536-2.17 6.46-0.70163 3.5567-0.82992 7.2028-0.38 10.8 0.81856 6.7516 2.1219 13.436 3.9 20 1 4.12 2.25 8.6 5.71 11.07 2.85-4.56 5.73-9.03 9.58-12.77z" fill="#A0616A" fill-rule="nonzero"/>
<circle cx="511.33" cy="325.28" r="17.17" fill="#A0616A" fill-rule="nonzero"/>
<path d="m504.92 344.11c-0.1 3.13-1.46 6.06-2.8 8.9-0.81 1.71-1.87 3.62-3.72 4 5.207 2.0828 10.611 3.634 16.13 4.63 1.8891 0.42357 3.8349 0.53504 5.76 0.33 1.6188-0.28946 3.1732-0.86513 4.59-1.7 6.297-3.5709 10.601-9.8404 11.67-17-2.1185 0.27671-4.2598 0.33368-6.39 0.17-1.2052 0.032915-2.3765-0.40053-3.27-1.21-0.56337-0.78351-0.88336-1.7157-0.92-2.68-0.38-2.84-0.68333-5.6867-0.91-8.54-4.223 0.16352-8.378 1.1166-12.25 2.81-1.6 0.7-3.16 1.51-4.81 2.11-1 0.36-3.89 0.43-4.59 1.08-1.08 1.03 1.57 4.94 1.51 7.1z" fill="#A0616A" fill-rule="nonzero"/>
<path d="m513.53 353.71c-0.86334-4.5595-4.5428-8.0578-9.14-8.69-1.8-0.21-3.7 0-5.37-0.67-2.85-1.23-4.05-4.82-6.81-6.23s-6.34-0.1-8.38 2.26-2.9 5.57-3.52 8.57c-0.96151 4.1603-1.2752 8.444-0.93 12.7 0.047514 0.78061 0.25515 1.5431 0.61 2.24 0.57299 0.79982 1.2642 1.5079 2.05 2.1 2.1687 1.995 3.3622 4.8347 3.27 7.78 0.035262 2.7387 0.5637 5.4487 1.56 8 2.39 7.08 4.79 14.17 6.87 21.35 0.45397 1.3279 0.70349 2.7171 0.74 4.12-0.05 2-1 4-0.51 5.95 0.32631 0.89913 0.59682 1.8175 0.81 2.75 0.016579 0.72345-0.077851 1.4452-0.28 2.14-1.31 5.62-5.07 18.56-4.42 24.29 8.53-3.14 21.4-5 30.44-6 2.4865-0.28645 4.9871-0.43335 7.49-0.44 6 0 12.29 1.13 17.89-1.07 5.19-2 9.5-6.82 15.08-6.84 0.87-3.27-1.63-13.61-3.08-16.67-5.6884-12.052-7.9311-25.442-6.48-38.69 0.52-4.76-1.38-9.56-0.73-14.31 0.092424-1.1125 0.40156-2.1962 0.91-3.19 0.53337-1.0036 1.5379-1.6695 2.67-1.77-0.6647-7.4474-2.123-14.802-4.35-21.94-0.81-2.54-2.27-5.48-4.93-5.65-2.4-0.16-4.17 2-5.9 3.69-1.7858 1.6944-3.9183 2.9807-6.25 3.77-0.95534 0.21052-1.8467 0.6459-2.6 1.27-1 1.05-1 2.76-1.83 4-1.44 2.22-5.12 2.43-6 4.91-0.18487 0.7293-0.31523 1.4714-0.39 2.22-0.40867 1.4599-1.2278 2.7718-2.36 3.78-1.6574 1.9099-3.7641 3.3773-6.13 4.27z" fill="#2F2E41" fill-rule="nonzero"/>
<path d="m523.32 305.69c0.30083-1.155-0.088089-2.38-1-3.15-0.5271-0.24752-1.068-0.46454-1.62-0.65-0.7503-0.51097-1.3869-1.1714-1.87-1.94-2.9056-3.2756-7.747-3.9847-11.47-1.68-2.81 1.86-4.28 5.16-6.68 7.53-1.23 1.23-2.7 2.19-3.94 3.42-2.4556 2.6138-4.0566 5.9136-4.59 9.46-0.51336 3.5287-0.65747 7.1014-0.43 10.66-0.029713 1.0785 0.12588 2.1541 0.46 3.18 0.35906 0.84059 0.85214 1.6173 1.46 2.3 3.0482 3.982 7.1343 7.0474 11.81 8.86 4.7 1.66 10.19 1.46 14.39-1.23 0.42062-0.23282 0.76718-0.57938 1-1 0.1998-0.62441 0.1998-1.2956 0-1.92-0.50102-2.4909-0.26113-5.074 0.69-7.43 0.83377-1.6405 1.5749-3.3265 2.22-5.05 0.41091-1.9744 0.4651-4.0065 0.16-6-0.49-5.1-1.38-10.24-0.59-15.36z" fill="#46455B" fill-rule="nonzero"/>
<g transform="translate(813 519)" fill-rule="nonzero">
<path d="m0.85 52.95c0 98.38 61.72 178 138 178" fill="#46455B"/>
<path d="m138.85 230.95c0-99.5 68.87-180 154-180" fill="#6C63FF"/>
<path d="m50.85 61.81c0 93.46 39.35 169.09 88 169.09" fill="#6C63FF"/>
<path d="m138.85 230.95c0-127.13 79.61-230 178-230" fill="#46455B"/>
<ellipse cx="132.86" cy="259.1" rx="34.31" ry="5.8" fill="#6C63FF" opacity=".1"/>
<path d="m109.81 232.15s19.57-0.6 25.47-4.8 30.11-9.22 31.57-2.48 29.41 33.5 7.32 33.68-51.34-3.44-57.23-7-7.13-19.4-7.13-19.4z" fill="#A8A8A8"/>
<path d="m174.53 256.2c-22.09 0.18-51.34-3.44-57.23-7-4.48-2.74-6.27-12.53-6.86-17.06h-0.66s1.24 15.78 7.13 19.37 35.13 7.21 57.23 7c6.37-0.05 8.58-2.32 8.46-5.68-0.86 2.12-3.29 3.33-8.07 3.37z" fill="#000" opacity=".2"/>
</g>
<path d="m816.53 36.6c0.86521-1.2321 1.3423-2.6947 1.37-4.2 0-9.12-18.58-16.5-41.5-16.5s-41.5 7.38-41.5 16.5c0.018679 1.696 0.59106 3.3394 1.63 4.68-25.52 2.85-42.71 8.19-42.71 14.32 0 9.11 38 16.5 85 16.5s85-7.39 85-16.5c0.03-6.45-19.29-12.1-47.29-14.8z" fill="#6C63FF" fill-rule="nonzero" opacity=".1"/>
<path d="m307.53 54.6c0.86521-1.2321 1.3423-2.6947 1.37-4.2 0-9.12-18.58-16.5-41.5-16.5s-41.5 7.38-41.5 16.5c0.041536 1.7053 0.64236 3.3496 1.71 4.68-25.52 2.85-42.71 8.19-42.71 14.32 0 9.11 38.05 16.5 85 16.5s85-7.39 85-16.5c-0.05-6.45-19.37-12.1-47.37-14.8z" fill="#6C63FF" fill-rule="nonzero" opacity=".1"/>
<path d="m599.27 40.74c2.33-1.35 5.48-0.06 7.08 2.12s2 5 2.45 7.62c0.89 5.92 1.54 12.71-2.45 17.16 6.52-19.77 25.27-34.91 46-37.12" opacity=".1" stroke="#6C63FF" stroke-width="3"/>
<path d="m265.74 141.72c1.5-0.87 3.52 0 4.55 1.36 0.91725 1.4806 1.4596 3.1625 1.58 4.9 0.57 3.81 1 8.17-1.57 11 4.4746-12.953 15.946-22.219 29.55-23.87" opacity=".1" stroke="#6C63FF" stroke-width="3"/>
<path d="m715.74 171.72c1.5-0.87 3.52 0 4.55 1.36 0.91725 1.4806 1.4596 3.1625 1.58 4.9 0.57 3.81 1 8.17-1.57 11 4.4746-12.953 15.946-22.219 29.55-23.87" opacity=".1" stroke="#6C63FF" stroke-width="3"/>
<polygon points="678.85 507.95 678.85 483.65 690.05 494.85 692.85 491.95 676.85 475.95 660.85 491.95 663.65 494.74 674.85 483.65 674.85 507.95" fill="#6C63FF" fill-rule="nonzero" opacity=".1"/>
<polygon points="436.85 587.95 436.85 563.65 448.05 574.85 450.85 571.95 434.85 555.95 418.85 571.95 421.65 574.74 432.85 563.65 432.85 587.95" fill="#6C63FF" fill-rule="nonzero" opacity=".1"/>
<polygon points="614.85 658.95 614.85 634.65 626.05 645.85 628.85 642.95 612.85 626.95 596.85 642.95 599.65 645.74 610.85 634.65 610.85 658.95" fill="#6C63FF" fill-rule="nonzero" opacity=".1"/>
</g></g></svg>