<svg fill="#000000" xmlns="http://www.w3.org/2000/svg" xmlns:xlink="http://www.w3.org/1999/xlink" version="1.1" x="0px" y="0px" viewBox="0 0 100 100" enable-background="new 0 0 100 100" xml:space="preserve"><g><path d="M51.414,8.586c-0.781-0.781-2.047-0.781-2.828,0l-45,45c-0.572,0.572-0.743,1.432-0.434,2.179C3.462,56.513,4.191,57,5,57   h13v33c0,1.104,0.896,2,2,2h60c1.104,0,2-0.896,2-2V57h13c0.809,0,1.538-0.487,1.848-1.235c0.31-0.747,0.139-1.607-0.434-2.179   L51.414,8.586z M80,53c-1.104,0-2,0.896-2,2v33H22V55c0-1.104-0.896-2-2-2H9.828L50,12.829L90.172,53H80z"></path><path d="M41.515,71.728c-0.781,0.781-0.781,2.047,0,2.828c0.781,0.781,2.047,0.781,2.828,0c3.119-3.119,8.195-3.119,11.314,0   c0.391,0.391,0.902,0.586,1.414,0.586s1.023-0.195,1.414-0.586c0.781-0.781,0.781-2.047,0-2.829   C53.806,67.05,46.192,67.049,41.515,71.728z"></path><path d="M34.443,64.657c-0.781,0.781-0.781,2.047,0,2.828s2.047,0.781,2.828,0c7.02-7.019,18.439-7.017,25.457,0   c0.391,0.391,0.902,0.586,1.414,0.586s1.023-0.195,1.414-0.586c0.781-0.781,0.781-2.047,0-2.828   C56.979,56.08,43.022,56.079,34.443,64.657z"></path><path d="M27.373,57.586c-0.781,0.781-0.781,2.047,0,2.828c0.781,0.781,2.047,0.781,2.828,0c5.288-5.289,12.319-8.201,19.799-8.201   s14.511,2.913,19.799,8.201C70.189,60.805,70.701,61,71.213,61s1.023-0.195,1.414-0.586c0.781-0.781,0.781-2.047,0-2.828   C66.584,51.542,58.548,48.213,50,48.213S33.416,51.542,27.373,57.586z"></path><path d="M50.003,77.713h-0.011c-1.38,0-2.494,1.119-2.494,2.5s1.124,2.5,2.505,2.5s2.5-1.119,2.5-2.5S51.384,77.713,50.003,77.713z   "></path></g></svg>