<?xml version="1.0" encoding="UTF-8"?>
<svg enable-background="new 0 0 100 100" fill="#000000" version="1.1" viewBox="0 0 100 100" xml:space="preserve" xmlns="http://www.w3.org/2000/svg" xmlns:xlink="http://www.w3.org/1999/xlink"><g fill="#000"><path d="m86.237 60.447c0.079-0.061 0.167-0.119 0.259-0.158-0.04 0.018-0.083 0.031-0.123 0.044 1.4-1.185 2.801-2.437 4.184-3.749l0.997-11.74c0.053-0.601 0.584-1.049 1.185-1.001 0.606 0.053 1.054 0.584 1.001 1.19l-3.552 41.821h3.714c0.606 0 1.098 0.492 1.098 1.098s-0.492 1.098-1.098 1.098h-87.804c-0.606-1e-3 -1.098-0.493-1.098-1.099s0.492-1.098 1.098-1.098h3.719l-3.557-41.821c-0.053-0.606 0.395-1.137 1.001-1.19 0.601-0.048 1.133 0.4 1.185 1.001l0.97 11.432c0.061 0.048 0.145 0.114 0.241 0.189 0.272 0.224 0.68 0.549 1.207 0.957 1.023 0.803 2.498 1.932 4.294 3.258 4e-3 0 9e-3 4e-3 0.013 4e-3 0.54 0.233 3.095 1.278 7.283 2.423 1.387 0.378 2.95 0.768 4.68 1.146l6.858-8.148c0.922-1.098 2.239-1.651 3.534-1.646 1.348-4e-3 2.713 0.597 3.631 1.765l6.111 7.775c0.268 0.342 0.676 0.536 1.102 0.536 0.079 0 0.158-9e-3 0.237-0.022 4e-3 0 0.013-4e-3 0.018-4e-3l10.431-2.56c0.382-0.092 0.768-0.136 1.141-0.136 1.282 0 2.472 0.518 3.337 1.37 0.628 0.615 1.089 1.414 1.295 2.318 0.097-9e-3 0.193-0.022 0.29-0.04-0.738-0.997-1.168-2.226-1.168-3.556 0-1.66 0.676-3.174 1.765-4.263s2.599-1.765 4.263-1.765c1.66 0 3.174 0.676 4.259 1.765 1.089 1.089 1.765 2.603 1.765 4.263 0 0.518-0.066 1.023-0.189 1.506 0.075-0.018 0.149-0.035 0.228-0.053 0.013-9e-3 0.031-0.013 0.048-0.018 3.341-0.817 6.774-1.809 10.282-3.007-0.043 0.04-0.091 0.079-0.135 0.115zm1.045 1.896v-4e-3c-0.044 0.018-0.092 0.031-0.136 0.04 0.04-9e-3 0.075-0.018 0.105-0.026 9e-3 -1e-3 0.022-5e-3 0.031-0.01zm0.259-0.132c-7.758 6.537-15.66 11.252-22.588 14.176v2.876c0 0.834-0.342 1.598-0.887 2.147-0.544 0.544-1.313 0.887-2.147 0.887s-1.598-0.342-2.142-0.887c-0.549-0.549-0.887-1.313-0.887-2.147v-0.698c-3.121 0.913-5.918 1.379-8.289 1.379-2.902 0-6.063-0.707-9.338-1.844-3.271-1.137-6.651-2.709-9.957-4.478-6.599-3.525-12.89-7.841-17.298-11.072-0.031-0.013-0.057-0.031-0.083-0.057-4e-3 -4e-3 -4e-3 -4e-3 -9e-3 -4e-3 -1.752-1.282-3.2-2.393-4.241-3.205l2.344 27.571h16.038v-1.462c0-0.606 0.492-1.098 1.098-1.098s1.098 0.492 1.098 1.098v1.462h3.547v-4.93c0-0.606 0.492-1.098 1.098-1.098s1.098 0.492 1.098 1.098v4.93h36.018v-3.465c0-0.606 0.492-1.098 1.098-1.098s1.098 0.492 1.098 1.098v3.464h2.243v-1.984c0-0.606 0.492-1.098 1.098-1.098s1.098 0.492 1.098 1.098v1.984h2.318v-6.664c0-0.61 0.487-1.098 1.098-1.098 0.606 0 1.098 0.487 1.098 1.098v6.664h4.82l2.3-27.026c-0.856 0.777-1.717 1.528-2.577 2.252-0.022 0.022-0.044 0.044-0.07 0.061h-4e-3l-4e-3 9e-3c-4e-3 4e-3 -9e-3 9e-3 -0.013 9e-3 0 4e-3 0 4e-3 -4e-3 4e-3h-4e-3 -4e-3v4e-3l-4e-3 4e-3c-0.023 0.014-0.04 0.027-0.058 0.04zm-40.232 4.356c-0.685-0.211-1.304-0.628-1.765-1.212l-6.111-7.775c-0.487-0.619-1.185-0.926-1.905-0.926-0.689 0-1.365 0.281-1.853 0.86l-6.094 7.24c0.834 0.154 1.703 0.312 2.599 0.457l3.872-4.324c0.382-0.435 0.931-0.654 1.449-0.65 0.316 0 0.632 0.075 0.922 0.228 0.285 0.154 0.544 0.391 0.729 0.685l3.244 5.216c1.581 0.1 3.223 0.17 4.913 0.201zm12.947-0.448c0.048 0.013 0.092 0.022 0.132 0.04 0.044 0.018 0.083 0.035 0.123 0.057 0.035 0.018 0.061 0.035 0.092 0.057 0.031 0.018 0.057 0.04 0.083 0.061 0.013 9e-3 0.026 0.022 0.04 0.035 0.026 0.022 0.048 0.044 0.07 0.07 0.04 0.04 0.07 0.083 0.101 0.127 0.022 0.031 0.04 0.061 0.057 0.092 0.035 0.061 0.061 0.127 0.083 0.198 9e-3 0.035 0.018 0.07 0.026 0.105 4e-3 0.026 9e-3 0.053 0.013 0.079 4e-3 0.048 9e-3 0.092 9e-3 0.14v12.082c0 0.237 0.092 0.439 0.246 0.593s0.356 0.246 0.588 0.246c0.237 0 0.439-0.092 0.593-0.246s0.246-0.356 0.246-0.593v-12.691c0-0.733-0.294-1.361-0.764-1.826-0.47-0.461-1.111-0.742-1.796-0.738-0.202 0-0.404 0.022-0.615 0.075l-10.216 2.507c3.319 0 6.818-0.149 10.48-0.496 4e-3 -4e-3 0.013-4e-3 0.018-4e-3 0.04 0 0.083-4e-3 0.123-4e-3 0.048 0 0.097 4e-3 0.145 9e-3h9e-3c0.039 3e-3 0.078 0.012 0.114 0.025zm21.327-1.971c-1.664 0.483-3.306 0.918-4.926 1.313-0.013 9e-3 -0.031 0.013-0.048 0.018-0.86 0.211-1.717 0.408-2.564 0.593-1.69 0.373-3.359 0.702-5 0.992-0.426 0.075-0.856 0.145-1.278 0.215-0.018 4e-3 -0.04 4e-3 -0.057 9e-3 -0.931 0.154-1.848 0.29-2.757 0.413v6.296c5.146-2.254 10.862-5.538 16.63-9.849zm-7.775-2.244c0-1.062-0.426-2.015-1.12-2.709-0.698-0.694-1.646-1.124-2.709-1.124s-2.011 0.43-2.709 1.124c-0.698 0.698-1.124 1.646-1.124 2.709 0 1.3 0.65 2.45 1.646 3.139 0.29-0.044 0.58-0.092 0.874-0.145 1.48-0.259 2.981-0.553 4.5-0.882 0.41-0.602 0.642-1.326 0.642-2.112zm-14.918 14.369v-7.893c-3.315 0.281-6.493 0.404-9.522 0.404-2.682 0-5.246-0.097-7.679-0.263-8.302-0.58-15.067-1.998-19.813-3.293-0.127-0.035-0.255-0.07-0.378-0.105 1.905 1.273 3.942 2.577 6.059 3.846 4.689 2.814 9.742 5.431 14.426 7.06 3.121 1.084 6.08 1.725 8.618 1.721 2.222 3e-3 5.058-0.48 8.289-1.477zm-19.207-10.115l-2.221-3.56-2.687 3.003c1.558 0.215 3.196 0.399 4.908 0.557z"/><path d="m36.671 18.568c4.294 0 7.775 3.481 7.775 7.775s-3.481 7.775-7.775 7.775c-4.298 0-7.78-3.481-7.78-7.775s3.482-7.775 7.78-7.775zm5.58 7.775c0-1.545-0.623-2.933-1.638-3.947-1.01-1.01-2.401-1.633-3.942-1.633-1.545 0-2.937 0.623-3.947 1.633-1.014 1.014-1.638 2.401-1.638 3.947 0 1.545 0.623 2.933 1.638 3.947 1.01 1.01 2.401 1.633 3.947 1.633 1.541 0 2.933-0.623 3.942-1.633 1.015-1.014 1.638-2.401 1.638-3.947z"/><path d="m29.691 33.332c0.426 0.43 0.426 1.124 0 1.554l-2.366 2.366c-0.43 0.426-1.124 0.426-1.554 0-0.426-0.43-0.426-1.124 0-1.554l2.366-2.366c0.43-0.425 1.123-0.425 1.554 0z"/><path d="m37.76 37.314v3.359c0 0.606-0.492 1.098-1.098 1.098s-1.098-0.492-1.098-1.098v-3.359c0-0.606 0.492-1.098 1.098-1.098 0.606 1e-3 1.098 0.493 1.098 1.098z"/><path d="m47.55 35.699c0.43 0.43 0.43 1.124 0 1.554-0.426 0.426-1.124 0.426-1.55 0l-2.366-2.366c-0.43-0.43-0.43-1.124 0-1.554 0.426-0.426 1.124-0.426 1.55 0l2.366 2.366z"/><path d="m50.975 25.263c0.606 0 1.098 0.492 1.098 1.098s-0.492 1.098-1.098 1.098h-3.341c-0.606 0-1.098-0.492-1.098-1.098s0.492-1.098 1.098-1.098h3.341z"/><path d="m47.55 15.451c0.43 0.43 0.43 1.124 0 1.554l-2.344 2.344c-0.43 0.43-1.124 0.43-1.554 0-0.426-0.426-0.426-1.12 0-1.55l2.348-2.348c0.426-0.426 1.124-0.426 1.55 0z"/><path d="m37.76 12.049v3.319c0 0.606-0.492 1.098-1.098 1.098s-1.098-0.492-1.098-1.098v-3.319c0-0.606 0.492-1.098 1.098-1.098s1.098 0.492 1.098 1.098z"/><path d="m29.673 17.822c0.426 0.43 0.426 1.124-4e-3 1.554-0.43 0.426-1.128 0.421-1.554-9e-3l-2.344-2.366c-0.43-0.43-0.426-1.124 4e-3 -1.55 0.43-0.43 1.124-0.426 1.554 4e-3l2.344 2.367z"/><path d="m25.687 25.263c0.61 0 1.098 0.492 1.098 1.098s-0.487 1.098-1.098 1.098h-3.337c-0.606 0-1.098-0.492-1.098-1.098s0.492-1.098 1.098-1.098h3.337z"/></g></svg>