<svg xmlns="http://www.w3.org/2000/svg" xmlns:xlink="http://www.w3.org/1999/xlink" width="100" height="100" viewBox="0 0 100 100"><g><g transform="translate(50 50) rotate(0) translate(-50 -50)" style="fill:#000000"><svg fill="#000000" xmlns="http://www.w3.org/2000/svg" xmlns:xlink="http://www.w3.org/1999/xlink" version="1.1" x="0px" y="0px" viewBox="0 0 100 100" enable-background="new 0 0 100 100" xml:space="preserve"><g><g><path fill="#000000" d="M86.237,60.447c0.079-0.061,0.167-0.119,0.259-0.158c-0.04,0.018-0.083,0.031-0.123,0.044    c1.4-1.185,2.801-2.437,4.184-3.749l0.997-11.74c0.053-0.601,0.584-1.049,1.185-1.001c0.606,0.053,1.054,0.584,1.001,1.19    l-3.552,41.821h3.714c0.606,0,1.098,0.492,1.098,1.098c0,0.606-0.492,1.098-1.098,1.098h-4.917H11.015H6.098    C5.492,89.049,5,88.557,5,87.951c0-0.606,0.492-1.098,1.098-1.098h3.719L6.26,45.032c-0.053-0.606,0.395-1.137,1.001-1.19    c0.601-0.048,1.133,0.4,1.185,1.001l0.97,11.432c0.061,0.048,0.145,0.114,0.241,0.189c0.272,0.224,0.68,0.549,1.207,0.957    c1.023,0.803,2.498,1.932,4.294,3.258c0.004,0,0.009,0.004,0.013,0.004c0.54,0.233,3.095,1.278,7.283,2.423    c1.387,0.378,2.95,0.768,4.68,1.146l6.858-8.148c0.922-1.098,2.239-1.651,3.534-1.646c1.348-0.004,2.713,0.597,3.631,1.765    l6.111,7.775c0.268,0.342,0.676,0.536,1.102,0.536c0.079,0,0.158-0.009,0.237-0.022c0.004,0,0.013-0.004,0.018-0.004l10.431-2.56    c0.382-0.092,0.768-0.136,1.141-0.136c1.282,0,2.472,0.518,3.337,1.37c0.628,0.615,1.089,1.414,1.295,2.318    c0.097-0.009,0.193-0.022,0.29-0.04c-0.738-0.997-1.168-2.226-1.168-3.556c0-1.66,0.676-3.174,1.765-4.263    c1.089-1.089,2.599-1.765,4.263-1.765c1.66,0,3.174,0.676,4.259,1.765c1.089,1.089,1.765,2.603,1.765,4.263    c0,0.518-0.066,1.023-0.189,1.506c0.075-0.018,0.149-0.035,0.228-0.053c0.013-0.009,0.031-0.013,0.048-0.018    c3.341-0.817,6.774-1.809,10.282-3.007C86.329,60.372,86.281,60.411,86.237,60.447z M87.282,62.343v-0.004    c-0.044,0.018-0.092,0.031-0.136,0.04c0.04-0.009,0.075-0.018,0.105-0.026C87.26,62.352,87.273,62.348,87.282,62.343z     M87.541,62.211c-7.758,6.537-15.66,11.252-22.588,14.176v2.876c0,0.834-0.342,1.598-0.887,2.147    c-0.544,0.544-1.313,0.887-2.147,0.887c-0.834,0-1.598-0.342-2.142-0.887c-0.549-0.549-0.887-1.313-0.887-2.147v-0.698    c-3.121,0.913-5.918,1.379-8.289,1.379c-2.902,0-6.063-0.707-9.338-1.844c-3.271-1.137-6.651-2.709-9.957-4.478    c-6.599-3.525-12.89-7.841-17.298-11.072c-0.031-0.013-0.057-0.031-0.083-0.057c-0.004-0.004-0.004-0.004-0.009-0.004    c-1.752-1.282-3.2-2.393-4.241-3.205l2.344,27.571h16.038v-1.462c0-0.606,0.492-1.098,1.098-1.098    c0.606,0,1.098,0.492,1.098,1.098v1.462H33.8v-4.93c0-0.606,0.492-1.098,1.098-1.098s1.098,0.492,1.098,1.098v4.93h36.018V83.39    c0-0.606,0.492-1.098,1.098-1.098c0.606,0,1.098,0.492,1.098,1.098v3.464h2.243V84.87c0-0.606,0.492-1.098,1.098-1.098    c0.606,0,1.098,0.492,1.098,1.098v1.984h2.318V80.19c0-0.61,0.487-1.098,1.098-1.098c0.606,0,1.098,0.487,1.098,1.098v6.664h4.82    l2.3-27.026c-0.856,0.777-1.717,1.528-2.577,2.252c-0.022,0.022-0.044,0.044-0.07,0.061h-0.004l-0.004,0.009    c-0.004,0.004-0.009,0.009-0.013,0.009c0,0.004,0,0.004-0.004,0.004c0,0,0,0-0.004,0c0,0,0,0-0.004,0c0,0.004,0,0.004,0,0.004    l-0.004,0.004C87.576,62.185,87.559,62.198,87.541,62.211z M47.309,66.567c-0.685-0.211-1.304-0.628-1.765-1.212l-6.111-7.775    c-0.487-0.619-1.185-0.926-1.905-0.926c-0.689,0-1.365,0.281-1.853,0.86l-6.094,7.24c0.834,0.154,1.703,0.312,2.599,0.457    l3.872-4.324c0.382-0.435,0.931-0.654,1.449-0.65c0.316,0,0.632,0.075,0.922,0.228c0.285,0.154,0.544,0.391,0.729,0.685    l3.244,5.216C43.977,66.466,45.619,66.536,47.309,66.567z M60.256,66.119c0.048,0.013,0.092,0.022,0.132,0.04    c0.044,0.018,0.083,0.035,0.123,0.057c0.035,0.018,0.061,0.035,0.092,0.057c0.031,0.018,0.057,0.04,0.083,0.061    c0.013,0.009,0.026,0.022,0.04,0.035c0.026,0.022,0.048,0.044,0.07,0.07c0.04,0.04,0.07,0.083,0.101,0.127    c0.022,0.031,0.04,0.061,0.057,0.092c0.035,0.061,0.061,0.127,0.083,0.198c0.009,0.035,0.018,0.07,0.026,0.105    c0.004,0.026,0.009,0.053,0.013,0.079c0.004,0.048,0.009,0.092,0.009,0.14v9.896v2.186c0,0.237,0.092,0.439,0.246,0.593    c0.154,0.154,0.356,0.246,0.588,0.246c0.237,0,0.439-0.092,0.593-0.246c0.154-0.154,0.246-0.356,0.246-0.593V75.65v-8.912v-0.167    c0-0.733-0.294-1.361-0.764-1.826c-0.47-0.461-1.111-0.742-1.796-0.738c-0.202,0-0.404,0.022-0.615,0.075l-10.216,2.507    c3.319,0,6.818-0.149,10.48-0.496c0.004-0.004,0.013-0.004,0.018-0.004c0.04,0,0.083-0.004,0.123-0.004    c0.048,0,0.097,0.004,0.145,0.009c0.004,0,0.004,0,0.009,0C60.181,66.097,60.22,66.106,60.256,66.119z M81.583,64.148    c-1.664,0.483-3.306,0.918-4.926,1.313c-0.013,0.009-0.031,0.013-0.048,0.018c-0.86,0.211-1.717,0.408-2.564,0.593    c-1.69,0.373-3.359,0.702-5,0.992c-0.426,0.075-0.856,0.145-1.278,0.215c-0.018,0.004-0.04,0.004-0.057,0.009    c-0.931,0.154-1.848,0.29-2.757,0.413v6.296C70.099,71.743,75.815,68.459,81.583,64.148z M73.808,61.904    c0-1.062-0.426-2.015-1.12-2.709c-0.698-0.694-1.646-1.124-2.709-1.124s-2.011,0.43-2.709,1.124    c-0.698,0.698-1.124,1.646-1.124,2.709c0,1.3,0.65,2.45,1.646,3.139c0.29-0.044,0.58-0.092,0.874-0.145    c1.48-0.259,2.981-0.553,4.5-0.882C73.576,63.414,73.808,62.69,73.808,61.904z M58.89,76.273V68.38    c-3.315,0.281-6.493,0.404-9.522,0.404c-2.682,0-5.246-0.097-7.679-0.263c-8.302-0.58-15.067-1.998-19.813-3.293    c-0.127-0.035-0.255-0.07-0.378-0.105c1.905,1.273,3.942,2.577,6.059,3.846c4.689,2.814,9.742,5.431,14.426,7.06    c3.121,1.084,6.08,1.725,8.618,1.721C52.823,77.753,55.659,77.27,58.89,76.273z M39.683,66.158l-2.221-3.56l-2.687,3.003    C36.333,65.816,37.971,66,39.683,66.158z"></path><path fill="#000000" d="M36.671,18.568c4.294,0,7.775,3.481,7.775,7.775s-3.481,7.775-7.775,7.775c-4.298,0-7.78-3.481-7.78-7.775    S32.373,18.568,36.671,18.568z M42.251,26.343c0-1.545-0.623-2.933-1.638-3.947c-1.01-1.01-2.401-1.633-3.942-1.633    c-1.545,0-2.937,0.623-3.947,1.633c-1.014,1.014-1.638,2.401-1.638,3.947c0,1.545,0.623,2.933,1.638,3.947    c1.01,1.01,2.401,1.633,3.947,1.633c1.541,0,2.933-0.623,3.942-1.633C41.628,29.276,42.251,27.889,42.251,26.343z"></path><path fill="#000000" d="M29.691,33.332c0.426,0.43,0.426,1.124,0,1.554l-2.366,2.366c-0.43,0.426-1.124,0.426-1.554,0    c-0.426-0.43-0.426-1.124,0-1.554l2.366-2.366C28.567,32.907,29.26,32.907,29.691,33.332z"></path><path fill="#000000" d="M37.76,37.314v3.359c0,0.606-0.492,1.098-1.098,1.098c-0.606,0-1.098-0.492-1.098-1.098v-3.359    c0-0.606,0.492-1.098,1.098-1.098C37.268,36.217,37.76,36.709,37.76,37.314z"></path><path fill="#000000" d="M47.55,35.699c0.43,0.43,0.43,1.124,0,1.554c-0.426,0.426-1.124,0.426-1.55,0l-2.366-2.366    c-0.43-0.43-0.43-1.124,0-1.554c0.426-0.426,1.124-0.426,1.55,0L47.55,35.699z"></path><path fill="#000000" d="M50.975,25.263c0.606,0,1.098,0.492,1.098,1.098c0,0.606-0.492,1.098-1.098,1.098h-3.341    c-0.606,0-1.098-0.492-1.098-1.098c0-0.606,0.492-1.098,1.098-1.098H50.975z"></path><path fill="#000000" d="M47.55,15.451c0.43,0.43,0.43,1.124,0,1.554l-2.344,2.344c-0.43,0.43-1.124,0.43-1.554,0    c-0.426-0.426-0.426-1.12,0-1.55L46,15.451C46.426,15.025,47.124,15.025,47.55,15.451z"></path><path fill="#000000" d="M37.76,12.049v3.319c0,0.606-0.492,1.098-1.098,1.098c-0.606,0-1.098-0.492-1.098-1.098v-3.319    c0-0.606,0.492-1.098,1.098-1.098C37.268,10.951,37.76,11.443,37.76,12.049z"></path><path fill="#000000" d="M29.673,17.822c0.426,0.43,0.426,1.124-0.004,1.554c-0.43,0.426-1.128,0.421-1.554-0.009l-2.344-2.366    c-0.43-0.43-0.426-1.124,0.004-1.55c0.43-0.43,1.124-0.426,1.554,0.004L29.673,17.822z"></path><path fill="#000000" d="M25.687,25.263c0.61,0,1.098,0.492,1.098,1.098c0,0.606-0.487,1.098-1.098,1.098H22.35    c-0.606,0-1.098-0.492-1.098-1.098c0-0.606,0.492-1.098,1.098-1.098H25.687z"></path></g></g></svg></g></g></svg>