<svg fill="#000000" xmlns="http://www.w3.org/2000/svg" viewBox="0 0 64 64" x="0px" y="0px"><path d="M52.259,40.877,39.705,49H36.277L29.61,45H34a6.006,6.006,0,0,0,6-6,1,1,0,0,0-1-1l-6.9.005-4.515-.452,2.047-2.729,4.739-1.895A1,1,0,0,0,34.98,31.8l-1-5a1,1,0,0,0-.609-.733l-5-2A1,1,0,0,0,28,24H22.3l-1.8-1.2a17.94,17.94,0,0,1,1.869-3.294A17.754,17.754,0,0,1,23.6,18H33a.97.97,0,0,0,.274-.039l7-2a1,1,0,0,0-.11-1.947l-5.771-.962-.959-.685A18.03,18.03,0,0,1,36.993,12a17.755,17.755,0,0,1,9.519,2.74l-1.277,2.552L40.555,20.1l-4.926,1.97A1,1,0,0,0,35.2,23.6l3,4a1,1,0,0,0,.6.38l4.346.87.87,4.346a.966.966,0,0,0,.085.251l2,4a1,1,0,0,0,1.137.523l4-1A1,1,0,0,0,52,36V30.535l2.072-1.381.9.451c0,.134.012.267.012.4a17.831,17.831,0,0,1-1.667,7.573l1.815.842A20.06,20.06,0,0,0,56.378,25.1a19.99,19.99,0,0,0-39.143,1.878,19.956,19.956,0,0,0,.781,9.34l1.9-.63A18.043,18.043,0,0,1,19.8,24.732l1.65,1.1A1.006,1.006,0,0,0,22,26h5.808l4.318,1.728.73,3.652-4.227,1.691a1,1,0,0,0-.429.329l-2.941,3.921L22.1,37.005a.983.983,0,0,0-.494.076L14.8,40H2v2H15a.985.985,0,0,0,.394-.081l6.763-2.9L32,40h5.873A4.006,4.006,0,0,1,34,43H26a1,1,0,0,0-.515,1.857l10,6A1,1,0,0,0,36,51h4a1,1,0,0,0,.543-.161l12.8-8.283a6.2,6.2,0,0,1,5.913-.432L39.646,58H34.179L15.346,51.062A1,1,0,0,0,15,51H2v2H14.821l18.833,6.938A1,1,0,0,0,34,60h6a1,1,0,0,0,.629-.223l21-17A1,1,0,0,0,61.6,41.2,8.2,8.2,0,0,0,52.259,40.877Zm2.18-15.29c.141.552.246,1.114.333,1.681l-.325-.163a1,1,0,0,0-1,.063l-3,2A1,1,0,0,0,50,30v5.219l-2.464.616-1.582-3.163L44.98,27.8a1,1,0,0,0-.784-.784l-4.626-.926-1.987-2.65,3.788-1.515a.968.968,0,0,0,.144-.072l5-3a1,1,0,0,0,.38-.41L48.167,15.9c.047.037.1.069.145.107A18.1,18.1,0,0,1,54.439,25.587ZM35.46,15.257,32.86,16H25.713a17.983,17.983,0,0,1,5.241-2.945l2.465,1.759a1.008,1.008,0,0,0,.417.172Z"></path></svg>