<?xml version="1.0" encoding="UTF-8"?>
<svg fill="#000000" viewBox="0 0 100 100" xmlns="http://www.w3.org/2000/svg">
<path d="M25,68.24H9.83a.79.79,0,1,0,0,1.58H25a.79.79,0,1,0,0-1.58Z"/>
<path d="M14.79,43.23a.92.92,0,0,0,0,1.84A.92.92,0,0,0,14.79,43.23Z"/>
<path d="M20,45.07a.92.92,0,0,0,0-1.84A.92.92,0,0,0,20,45.07Z"/>
<path d="M58.48,25.89a.92.92,0,0,0,0,1.84A.92.92,0,0,0,58.48,25.89Z"/>
<path d="M64.55,27.73a.92.92,0,0,0,0-1.84A.92.92,0,0,0,64.55,27.73Z"/>
<path d="M64.33,51l-1.93-.2a9.56,9.56,0,0,0-2.14,0L58.69,51a.79.79,0,0,0,.09,1.57h.09l1.57-.19a8,8,0,0,1,1.79,0l1.93.2A.79.79,0,0,0,64.33,51Z"/>
<path d="M85.7,66.45a9.37,9.37,0,0,1-9.36-9.36.79.79,0,0,0-1.58,0A11,11,0,0,0,85.7,68a.79.79,0,1,0,0-1.58Z"/>
<path d="m79.5 39.62a1 1 0 0 0 0 2 1 1 0 0 0 0 -2z"/>
<path d="m85.14 39.62a1 1 0 0 0 0 2 1 1 0 0 0 0 -2z"/>
<path d="M92.8,52.42h0a1,1,0,0,0-.32-1.32c-1.68-1.11-3.37-2.25-5.16-3.4A10.92,10.92,0,1,0,76,29.11v-7a14.2,14.2,0,0,0-25.95-8,11.52,11.52,0,0,0-22.52,3.41c0,.07,0,.14,0,.2s0,0,0,.05a.78.78,0,0,0,0,.09,11.54,11.54,0,0,0,7.64,10.5L34.69,31l-.88.35h0l-6.06,2.5A12.41,12.41,0,0,0,5.21,41L4.8,64.29a.79.79,0,0,0,.64.79h.15V69a4.77,4.77,0,0,0,.95,2.86l-2.32,15a.79.79,0,0,0,.78.91H9.95V91a3,3,0,0,0,6,0V88.45h3V91a3,3,0,0,0,6,0V87.69h3a.78.78,0,0,0,.45.15h.52V91a3,3,0,0,0,3,3h.57a3,3,0,0,0,3-3V87.84h.43a.79.79,0,0,0,.78-.66L39,73.28l2.37,13.91a.79.79,0,0,0,.78.66h.43V91a3,3,0,0,0,3,3h.57a3,3,0,0,0,3-3V87.84h.52a.79.79,0,0,0,.78-.64,54.48,54.48,0,0,0,.84-6.55H53.5v10a3.32,3.32,0,0,0,6.63,0v-10H62.9v10a3.32,3.32,0,0,0,6.63,0v-10h1.11a51.77,51.77,0,0,0,.83,6.88.79.79,0,0,0,.77.64h.45V91a3,3,0,0,0,3,3H76a3,3,0,0,0,3-3V88.18h.36a.79.79,0,0,0,.77-.6l2.22-9.21,2.22,9.21a.79.79,0,0,0,.77.6h.36V91a3,3,0,0,0,3,3H89a3,3,0,0,0,3-3V88.18h.45a.79.79,0,0,0,.77-.64,53.5,53.5,0,0,0,.93-10.11,55.6,55.6,0,0,0-.42-6.8A5.12,5.12,0,0,0,95,67.2v-7h0a.79.79,0,0,0,.79-.79V58A6.69,6.69,0,0,0,92.8,52.42ZM91.06,52a3,3,0,0,1-2.36.53,5.32,5.32,0,0,1-1.62-.72,6.21,6.21,0,0,0-1.45-.73h0V48.59C87.54,49.76,89.32,50.91,91.06,52ZM50.21,59.1v.05l0,.68a8.09,8.09,0,0,1-.16-1.6v-12c0-3.8,2.22-6.89,4.94-6.89h.2v2.94a5.22,5.22,0,0,0-3.62,4.23ZM48.44,46.28v12H39.79V42.67l3.41-.06a.79.79,0,0,0,.77-.68L44.25,40l2-.89a.79.79,0,0,0,.46-.7l.12-4.69.42.12-.13,4.69a.78.78,0,0,0,.61.79l0,0H51.2A9.42,9.42,0,0,0,48.44,46.28Zm-1.19-14-3.08-.9-.91-.41-.39-2.57a11.53,11.53,0,0,0,4.58-3Zm-4,3a.79.79,0,0,0,.14-.28l.89-1.78,1,.53-.11,4.2-1.9.87a.79.79,0,0,0-.45.6L42.51,41l-2.21,0ZM42.08,34H35.93l-.73-1.46.49-.19a.79.79,0,0,0,.49-.6l.49-2.92a11.56,11.56,0,0,0,4.68,0l.42,2.8a.79.79,0,0,0,.46.6l.61.27Zm-.79,1.58L39,40.13l-1.72-3.44-.57-1.14Zm8.93,2.25c1.83-1.47,3.93-3.45,3.93-4.82v-1a11.68,11.68,0,0,0,4.25,2.19V37.8Zm3.93-8v-5c6.66-.15,12.5-2.25,15.19-5.13v9.57a10.13,10.13,0,0,1-15.19.53Zm2.59,9.57h2.45A.79.79,0,0,0,60,38.6V34.45a11.72,11.72,0,0,0,1.53.1,11.54,11.54,0,0,0,1.8-.15V38.6a.79.79,0,0,0,.79.79h2.18v2.7H56.74ZM64.9,37.8V34a11.82,11.82,0,0,0,4.45-2.5V33c0,1,1,2.35,2.15,3.52a10.94,10.94,0,0,0-.1,1.3Zm3,1.58h0c1.37.51,2.66,1,3.9,1.54a11,11,0,0,0,4,5.81l-5-2.14h0a5.19,5.19,0,0,0-2.9-2.26ZM79,49.59v1.69H75.56a6.65,6.65,0,0,0-3.47,1l-.61-5.75,0-.07C73.07,46.94,76.13,48.3,79,49.59Zm.79,3.27a.79.79,0,0,0,.79-.79V48.76a10.06,10.06,0,0,0,3.5,0v3.31a.79.79,0,0,0,.79.79h.83a4.3,4.3,0,0,1,.53.31l.2.13a4.28,4.28,0,0,1-8.31-.44ZM90.53,33.51A9.36,9.36,0,1,1,73,38c0-.11,0-.23,0-.34H80.1a5.28,5.28,0,0,0,4.28-2.22v1.43a.79.79,0,0,0,.24.56.82.82,0,0,0,.57.22C88.08,37.57,89.75,35.4,90.53,33.51Zm-8.22-4.88a9.33,9.33,0,0,1,7.09,3.27c-.22.85-1.08,3.52-3.45,4.07V31.78a.79.79,0,0,0-1.56-.15c0,.18-.88,4.43-4.3,4.43H73.16A9.37,9.37,0,0,1,82.32,28.62ZM61.75,9.46A12.64,12.64,0,0,1,74.37,22.09v8.4a10.93,10.93,0,0,0-2.46,4.13,3.44,3.44,0,0,1-1-1.64V29.82l0,0h0V16.18a.79.79,0,1,0-1.58,0c0,3.71-7.62,7.09-16,7.09a.79.79,0,0,0-.79.79V33c0,.58-1.7,2.3-3.88,4l.42-14.9A12.64,12.64,0,0,1,61.75,9.46ZM39,7.58a9.94,9.94,0,0,1,9.83,8.61q-.14.32-.27.64a4.58,4.58,0,0,1-3.4-4.41.79.79,0,0,0-.79-.79H33.64a.79.79,0,0,0-.79.79,4.58,4.58,0,0,1-3.75,4.49A9.94,9.94,0,0,1,39,7.58ZM29.12,18.5a6.16,6.16,0,0,0,5.26-5.3h9.26a6.15,6.15,0,0,0,4.42,5.11,14.1,14.1,0,0,0-.51,3.75v.52A9.92,9.92,0,0,1,29.12,18.5Zm4.65,14.68,4,7.9-2.19,0-.27-2.45a.79.79,0,0,0-.6-.68l-1.74-.41-.12-3.79Zm-2.53,1,.13,4a.79.79,0,0,0,.61.74l1.78.42L34,41.91a.79.79,0,0,0,.77.71l3.41.06V58.26H30V41a12.33,12.33,0,0,0-1.45-5.81ZM6.46,59.78,6.79,41a10.84,10.84,0,0,1,21.67,0V59.66a73.1,73.1,0,0,1-2.78-9.18V35.92a.79.79,0,0,0-.79-.79l-.19,0h0a.79.79,0,0,0-.92.63c0,.15-.68,3.35-3.17,4V35.92A.79.79,0,0,0,19,35.77s-.79,4.09-4,4.09H10.32a.79.79,0,0,0-.79.79.78.78,0,0,0,0,.22v9.62A79.91,79.91,0,0,1,6.46,59.78Zm21.21,2.42v5.55L26.15,58a4.73,4.73,0,0,0-.2-.81C26.54,59,27.17,60.78,27.67,62.21Zm-1.72-5.06,0,0h0ZM19.23,41.21a.85.85,0,0,0,.57.22,5.23,5.23,0,0,0,4.3-2.51v8.35l0,0a8.66,8.66,0,0,1-12.93.42V41.43h3.91a4.94,4.94,0,0,0,3.94-2v1.18A.79.79,0,0,0,19.23,41.21Zm-5,10.24v2.6H12.69a.78.78,0,0,0-.38.1,4.61,4.61,0,0,0-1.69.72,5.61,5.61,0,0,0-.76.11,24.68,24.68,0,0,0,1.28-4.51v-.69A10.27,10.27,0,0,0,14.27,51.45Zm.53,4.18h.26a.79.79,0,0,0,.79-.79v-3a9.61,9.61,0,0,0,3.15,0v3a.79.79,0,0,0,.79.79h1.5a3.94,3.94,0,0,1-7.73,0Zm5.78-1.58v-2.6a10.22,10.22,0,0,0,3.53-2v1a25.54,25.54,0,0,0,1.18,4.59,5.44,5.44,0,0,0-1.07-.21,4.6,4.6,0,0,0-1.68-.72.78.78,0,0,0-.38-.1H20.57Zm-12,4.5L7.17,67.76V62.38C7.58,61.29,8.09,59.94,8.6,58.55Zm4.33,33.87a1.4,1.4,0,0,1-1.31-.92h2.62A1.4,1.4,0,0,1,12.93,92.42Zm1.4-2.5h-2.8V87.69h.18a.79.79,0,0,0,.79.76h1.83Zm7.58,2.5a1.4,1.4,0,0,1-1.31-.92h2.62A1.4,1.4,0,0,1,21.91,92.42Zm1.4-2.5h-2.8V88.45h2.26a.78.78,0,0,0,.54-.22Zm.25-3.81V75.86a.79.79,0,0,0-1.58,0v11h-8.7v-11a.79.79,0,1,0-1.58,0V86.12H5.92l4.32-27.9A3,3,0,0,1,12,55.91a5.52,5.52,0,0,0,10.83,0,3,3,0,0,1,1.76,2.31l4.32,27.9Zm8.88,6.3h-.57a1.4,1.4,0,0,1-1.39-1.25h3.35A1.4,1.4,0,0,1,32.44,92.42Zm1.41-2.83H30.46V87.84h3.38Zm12.3,2.83h-.57a1.4,1.4,0,0,1-1.39-1.25h3.35A1.4,1.4,0,0,1,46.14,92.42Zm1.41-2.83H44.17V87.84h3.38ZM49,86.26H42.82l-3-17.82a.79.79,0,0,0-1.56,0l-3,17.82H30.54L28.3,71.81A4.77,4.77,0,0,0,29.25,69V65.08h.13A.79.79,0,0,0,30,64.3V59.84H48.58A8.34,8.34,0,0,0,50,63.4l0,0-.62,16.42a.79.79,0,0,0,.22.58l0,0A53.55,53.55,0,0,1,49,86.26Zm7.82,6.16a1.74,1.74,0,0,1-1.68-1.3h3.35A1.74,1.74,0,0,1,56.81,92.42Zm1.74-2.88H55.07V80.66h3.48Zm7.66,2.88a1.74,1.74,0,0,1-1.68-1.3h3.35A1.74,1.74,0,0,1,66.22,92.42ZM68,89.54H64.48V80.66H68Zm2.59-12.11c0,.55,0,1.1,0,1.65H51l.75-19.83,1.33-12.5a3.63,3.63,0,0,1,3.61-3.09h9.58a3.63,3.63,0,0,1,3.61,3.06l.72,6.74A6.67,6.67,0,0,0,68.85,58V59.4a.79.79,0,0,0,.79.79v7A5.12,5.12,0,0,0,71,70.63,55.58,55.58,0,0,0,70.54,77.43Zm.82-9.9c0-.11,0-.21,0-.33v-7h1ZM76,92.42h-.32a1.4,1.4,0,0,1-1.37-1.1h3.05A1.4,1.4,0,0,1,76,92.42Zm1.4-2.68H74.28V88.18H77.4ZM89,92.42h-.32a1.4,1.4,0,0,1-1.37-1.1h3.05A1.4,1.4,0,0,1,89,92.42Zm1.4-2.68H87.24V88.18h3.12Zm1.38-3.15H85.92L83.09,74.8a.79.79,0,0,0-1.53,0L78.72,86.6H72.9a52.33,52.33,0,0,1-.78-9.17,53.82,53.82,0,0,1,.47-7.1H92.05a53.83,53.83,0,0,1,.47,7.1A52.34,52.34,0,0,1,91.74,86.6Zm1.57-19.4a3.41,3.41,0,0,1,0,.35l-.95-7.37h1Zm.9-8.6H91.44a.79.79,0,0,0-.78.89l1.19,9.26H72.79L74,59.5a.79.79,0,0,0-.78-.89H70.43V58a5.14,5.14,0,0,1,5.13-5.13h1A5.86,5.86,0,0,0,87.86,54l.36.12a3.41,3.41,0,0,0,1,.16,4.69,4.69,0,0,0,2.35-.69A5.12,5.12,0,0,1,94.21,58Z"/>
<path d="M36,19.38a.92.92,0,0,0,0,1.85A.92.92,0,0,0,36,19.38Z"/>
<path d="M42,21.22a.92.92,0,0,0,0-1.85A.92.92,0,0,0,42,21.22Z"/>
</svg>