<?xml version="1.0" encoding="UTF-8"?>
<svg viewBox="0 0 100 100" xmlns="http://www.w3.org/2000/svg">
<g fill="#1A1A1A">
<svg enable-background="new 0 0 100 100" fill="#1A1A1A" version="1.1" viewBox="0 0 100 100" xml:space="preserve" xmlns="http://www.w3.org/2000/svg" xmlns:xlink="http://www.w3.org/1999/xlink"><path d="m52.595 14.132l-3.846 32.801h23.646l-28.77 39.268 6.394-30.267h-22.369l24.945-41.802m-24.945 41.802h-0.046 0.046m28.02-50.859l-4.793 8.032-24.944 41.802-1.805 3.025h23.423l-5.884 27.854-1.92 9.088 5.49-7.493 28.771-39.267 2.331-3.182h-25.342l3.584-30.568 1.089-9.291z"/><path d="m50.484 23.542l-2.658 22.679-5.722 2.235 8.38-24.914m2.111-9.41l-12.121 36.035 8.275-3.233 3.846-32.802z"/><path d="m59.15 53.177l-12.955 25.537 4.692-22.062 8.263-3.475m2.125-1.979l-11.257 4.736-6.394 30.058 17.651-34.794z"/></svg>
</g></svg>