<?xml version="1.0" encoding="UTF-8"?>
<svg version="1.1" viewBox="0 0 60 27" xmlns="http://www.w3.org/2000/svg">
<g>
<path d="m11.138 23.316c0.276 0 0.552-0.069 0.759-0.276 0.414-0.414 0.414-1.035 0-1.449l-7.935-8.004 7.935-7.935c0.414-0.414 0.414-1.035 0-1.449s-1.035-0.414-1.449 0l-9.453 9.384 9.384 9.384c0.207 0.207 0.483 0.345 0.759 0.345z"/>
<path d="m35.727 26.421c0.138 0 0.207 0.069 0.345 0.069 0.414 0 0.828-0.276 0.966-0.69l7.59-23.736c0.207-0.552-0.138-1.104-0.69-1.311s-1.104 0.138-1.311 0.69l-7.59 23.736c-0.138 0.483 0.138 1.104 0.69 1.242z"/>
<path d="m48.837 22.971c0.207 0.207 0.483 0.276 0.759 0.276s0.552-0.069 0.759-0.276l9.315-9.384-9.384-9.384c-0.414-0.414-1.035-0.414-1.449 0s-0.414 1.035 0 1.449l7.935 7.935-7.935 7.935c-0.414 0.414-0.414 1.104 0 1.449z"/>
<g transform="translate(14 5)">
<path d="m5.7449 0.09112c-1.3934 0-2.7899 0.53628-3.8489 1.6116-2.1178 2.1506-2.1151 5.6358 0 7.7878l8.0249 8.1759c0.15138 0.15509 0.35835 0.24246 0.57439 0.24246s0.42302-0.087368 0.57439-0.24246c2.6788-2.7201 5.3545-5.439 8.0332-8.159 2.1179-2.1506 2.1179-5.6457 0-7.7962-2.1179-2.1506-5.5715-2.1506-7.6894 0l-0.914 0.91969-0.914-0.92812c-1.059-1.0753-2.4471-1.6116-3.8405-1.6116zm0 1.6031c0.9737 0 1.9453 0.381 2.7001 1.1475l1.4842 1.5188c0.15138 0.15509 0.35835 0.24246 0.57439 0.24246s0.42302-0.087368 0.57439-0.24246l1.4758-1.5019c1.5098-1.533 3.8989-1.533 5.4086 0 1.5097 1.533 1.5097 3.9682 0 5.5012-2.4869 2.5253-4.9761 5.06-7.463 7.5853l-7.463-7.5937c-1.5088-1.5352-1.5096-3.9767 0-5.5097 0.75488-0.76651 1.7348-1.1475 2.7085-1.1475z"/>
</g>
</g>
</svg>