<?xml version="1.0" encoding="UTF-8"?>
<svg enable-background="new 0 0 24 24" fill="#000" version="1.1" viewBox="0 0 24 24" xml:space="preserve" xmlns="http://www.w3.org/2000/svg" xmlns:xlink="http://www.w3.org/1999/xlink"><path d="m20.719 14.904h1.085c0.221 0 0.4-0.18 0.4-0.4s-0.18-0.4-0.4-0.4h-1.289l-1.437-5.646c0.079-0.271 0.134-0.552 0.134-0.849 0-1.313-0.833-2.427-1.994-2.864v-3.445c0-0.593-0.482-1.075-1.075-1.075s-1.077 0.483-1.077 1.075v3.444c-1.161 0.438-1.994 1.551-1.994 2.864 0 0.296 0.056 0.577 0.134 0.849l-1.437 5.646h-1.289c-0.221 0-0.4 0.18-0.4 0.4s0.179 0.4 0.4 0.4h1.085l-2.131 8.372c-0.042 0.166 0.026 0.34 0.169 0.434 0.066 0.044 0.143 0.065 0.218 0.065 0.087 0 0.174-0.029 0.247-0.086l2.143-1.678c0.069-0.054 0.119-0.129 0.141-0.215l1.779-6.893h1.17v0.494c0 0.419 0.341 0.76 0.76 0.76h0.161c0.419 0 0.76-0.341 0.76-0.76v-0.494h1.185l1.379 5.392c-1.531-0.709-3.622-1.205-5.916-1.379-0.224-0.024-0.412 0.148-0.429 0.368-0.018 0.22 0.147 0.412 0.368 0.429 2.531 0.193 4.788 0.782 6.241 1.616l0.119 0.467c0.022 0.085 0.071 0.161 0.142 0.216l2.144 1.678c0.071 0.056 0.159 0.085 0.246 0.085 0.076 0 0.152-0.021 0.219-0.065 0.144-0.094 0.211-0.268 0.169-0.434l-2.13-8.371zm-4.852-13.604c0-0.303 0.55-0.305 0.55 0v3.267c-0.092-8e-3 -0.18-0.028-0.274-0.028s-0.183 0.019-0.275 0.028v-3.267zm0.276 4.039c1.251 0 2.269 1.018 2.269 2.269s-1.018 2.27-2.269 2.27c-1.252 0-2.27-1.018-2.27-2.27 0-1.251 1.018-2.269 2.27-2.269zm-4.531 16.127l-1.112 0.871 3.262-12.815c0.214 0.266 0.466 0.498 0.756 0.68l-2.906 11.264zm4.491-6.068l-0.019-0.802c8e-3 -0.031 0.019-0.06 0.019-0.093 0-0.042-0.012-0.08-0.024-0.117l-0.017-0.736 0.12-0.041 0.019 0.802c-8e-3 0.031-0.019 0.06-0.019 0.093 0 0.042 0.012 0.079 0.024 0.117l0.017 0.736-0.12 0.041zm0.879-1.294v-0.494c0-0.419-0.341-0.759-0.76-0.759h-0.161c-0.419 0-0.76 0.34-0.76 0.759v0.494h-0.964l0.921-3.571c0.282 0.085 0.574 0.145 0.883 0.145 0.317 0 0.617-0.062 0.905-0.152l0.915 3.578h-0.979zm3.69 7.362l-0.126-0.491-3e-3 -0.012-2.755-10.771c0.282-0.18 0.526-0.409 0.735-0.669l3.262 12.815-1.113-0.872z"/><path d="m16.143 8.87c0.695 0 1.262-0.566 1.262-1.262 0-0.695-0.566-1.261-1.262-1.261s-1.263 0.566-1.263 1.261c0 0.696 0.566 1.262 1.263 1.262zm0-1.723c0.254 0 0.461 0.207 0.461 0.461 0 0.255-0.207 0.462-0.461 0.462-0.255 0-0.462-0.207-0.462-0.462 0-0.254 0.207-0.461 0.462-0.461z"/><path d="m10.141 19.284c-0.017-0.22-0.212-0.385-0.429-0.368-5.048 0.386-8.573 2.172-8.573 4.343 0 0.221 0.179 0.4 0.4 0.4s0.4-0.18 0.4-0.4c0-1.68 3.368-3.204 7.834-3.546 0.22-0.017 0.385-0.209 0.368-0.429z"/></svg>