<svg xmlns="http://www.w3.org/2000/svg" xmlns:xlink="http://www.w3.org/1999/xlink" width="100" height="100" viewBox="0 0 100 100"><g><g transform="translate(50 50) rotate(0) translate(-50 -50)" style="fill:#000000"><svg fill="#000000" xmlns="http://www.w3.org/2000/svg" xmlns:xlink="http://www.w3.org/1999/xlink" version="1.1" x="0px" y="0px" viewBox="0 0 100 100" enable-background="new 0 0 100 100" xml:space="preserve"><path fill-rule="evenodd" clip-rule="evenodd" d="M55.389,28.239c3.58-2.133,7.535-2.567,11.154-1.727  c1.795,0.417,3.502,1.146,5.033,2.134c1.541,0.995,2.911,2.252,4.024,3.721c2.102,2.772,3.292,6.286,2.993,10.193  c7.221,0.294,12.134,4.274,14.649,9.499c1.171,2.432,1.809,5.139,1.903,7.863c0.095,2.71-0.353,5.447-1.351,7.96  c-2.38,5.994-7.812,10.669-16.387,10.669v-0.009h-1.628l-2.301-3.984h3.929V74.55c6.671,0,10.868-3.565,12.684-8.137  c0.791-1.993,1.146-4.184,1.069-6.366c-0.075-2.169-0.582-4.321-1.513-6.254c-2.132-4.427-6.572-7.68-13.252-7.209v0  c-0.189,0.013-0.384-0.002-0.578-0.046c-1.074-0.246-1.746-1.316-1.5-2.391c0.846-3.639-0.04-6.912-1.905-9.373  c-0.828-1.092-1.848-2.028-2.994-2.768c-1.155-0.745-2.433-1.293-3.768-1.603c-3.049-0.708-6.428-0.186-9.354,2.033l-0.003-0.003  c-0.826,0.625-2.007,0.514-2.7-0.278c-2.26-2.592-4.924-4.387-7.752-5.464l-2.822-4.889C47.472,22.573,51.789,24.654,55.389,28.239  L55.389,28.239z M57.178,78.543l-2.301-3.984H23.398v-0.008c-4.891,0-8.663-2.037-11.129-5.039  c-1.605-1.954-2.674-4.326-3.152-6.822c-0.478-2.494-0.361-5.102,0.404-7.528c1.178-3.732,3.922-7.049,8.433-8.856  c0.789-0.316,1.264-1.08,1.252-1.882c0.176-5.936,2.74-10.743,6.508-14.027c0.804-0.701,1.665-1.333,2.572-1.895l-1.996-3.457  c-1.125,0.691-2.197,1.476-3.201,2.351c-4.299,3.748-7.3,9.123-7.804,15.724c-5.041,2.388-8.167,6.383-9.577,10.854  c-0.964,3.059-1.113,6.337-0.514,9.466c0.6,3.127,1.954,6.117,3.997,8.604c3.186,3.877,8.007,6.508,14.208,6.508v-0.008H57.178z"></path><path fill-rule="evenodd" clip-rule="evenodd" d="M23.495,7.483c-0.467-0.813-0.187-1.849,0.625-2.316  c0.813-0.466,1.849-0.186,2.316,0.625l50.07,86.725c0.467,0.812,0.187,1.849-0.626,2.314c-0.812,0.467-1.849,0.187-2.314-0.625  L23.495,7.483z"></path></svg></g></g></svg>