<?xml version="1.0" encoding="UTF-8"?>
<svg clip-rule="evenodd" enable-background="new 0 0 100 100" fill="#000000" fill-rule="evenodd" version="1.1" viewBox="0 0 100 100" xml:space="preserve" xmlns="http://www.w3.org/2000/svg" xmlns:xlink="http://www.w3.org/1999/xlink"><path d="m55.389 28.239c3.58-2.133 7.535-2.567 11.154-1.727 1.795 0.417 3.502 1.146 5.033 2.134 1.541 0.995 2.911 2.252 4.024 3.721 2.102 2.772 3.292 6.286 2.993 10.193 7.221 0.294 12.134 4.274 14.649 9.499 1.171 2.432 1.809 5.139 1.903 7.863 0.095 2.71-0.353 5.447-1.351 7.96-2.38 5.994-7.812 10.669-16.387 10.669v-9e-3h-1.628l-2.301-3.984h3.929v-8e-3c6.671 0 10.868-3.565 12.684-8.137 0.791-1.993 1.146-4.184 1.069-6.366-0.075-2.169-0.582-4.321-1.513-6.254-2.132-4.427-6.572-7.68-13.252-7.209-0.189 0.013-0.384-2e-3 -0.578-0.046-1.074-0.246-1.746-1.316-1.5-2.391 0.846-3.639-0.04-6.912-1.905-9.373-0.828-1.092-1.848-2.028-2.994-2.768-1.155-0.745-2.433-1.293-3.768-1.603-3.049-0.708-6.428-0.186-9.354 2.033l-3e-3 -3e-3c-0.826 0.625-2.007 0.514-2.7-0.278-2.26-2.592-4.924-4.387-7.752-5.464l-2.822-4.889c4.453 0.771 8.77 2.852 12.37 6.437zm1.789 50.304l-2.301-3.984h-31.479v-8e-3c-4.891 0-8.663-2.037-11.129-5.039-1.605-1.954-2.674-4.326-3.152-6.822-0.478-2.494-0.361-5.102 0.404-7.528 1.178-3.732 3.922-7.049 8.433-8.856 0.789-0.316 1.264-1.08 1.252-1.882 0.176-5.936 2.74-10.743 6.508-14.027 0.804-0.701 1.665-1.333 2.572-1.895l-1.996-3.457c-1.125 0.691-2.197 1.476-3.201 2.351-4.299 3.748-7.3 9.123-7.804 15.724-5.041 2.388-8.167 6.383-9.577 10.854-0.964 3.059-1.113 6.337-0.514 9.466 0.6 3.127 1.954 6.117 3.997 8.604 3.186 3.877 8.007 6.508 14.208 6.508v-8e-3h33.779z"/><path d="m23.495 7.483c-0.467-0.813-0.187-1.849 0.625-2.316 0.813-0.466 1.849-0.186 2.316 0.625l50.07 86.725c0.467 0.812 0.187 1.849-0.626 2.314-0.812 0.467-1.849 0.187-2.314-0.625l-50.071-86.723z"/></svg>