<?xml version="1.0" encoding="UTF-8"?>
<svg width="32px" height="32px" viewBox="0 0 32 32" version="1.1" xmlns="http://www.w3.org/2000/svg" xmlns:xlink="http://www.w3.org/1999/xlink">
    <!-- Generator: Sketch 43.2 (39069) - http://www.bohemiancoding.com/sketch -->
    <title>Untitled 8</title>
    <desc>Created with Sketch.</desc>
    <defs></defs>
    <g id="Page-1" stroke="none" stroke-width="1" fill="none" fill-rule="evenodd">
        <g id="noun_CPU_1701158" fill-rule="nonzero" fill="#000000">
            <path d="M31.36375,9.025 C31.55419,9.025 31.70875,8.87044 31.70875,8.68 C31.70875,8.48956 31.55419,8.335 31.36375,8.335 L29.12125,8.335 L29.12125,6.61 L31.36375,6.61 C31.55419,6.61 31.70875,6.45544 31.70875,6.265 C31.70875,6.07456 31.55419,5.92 31.36375,5.92 L29.12125,5.92 L29.12125,5.14375 C29.12125,3.81205 28.03795,2.72875 26.70625,2.72875 L25.93,2.72875 L25.93,0.48625 C25.93,0.29581 25.77544,0.14125 25.585,0.14125 C25.39456,0.14125 25.24,0.29581 25.24,0.48625 L25.24,2.72875 L23.515,2.72875 L23.515,0.48625 C23.515,0.29581 23.36044,0.14125 23.17,0.14125 C22.97956,0.14125 22.825,0.29581 22.825,0.48625 L22.825,2.72875 L21.1,2.72875 L21.1,0.48625 C21.1,0.29581 20.94544,0.14125 20.755,0.14125 C20.56456,0.14125 20.41,0.29581 20.41,0.48625 L20.41,2.72875 L18.685,2.72875 L18.685,0.48625 C18.685,0.29581 18.53044,0.14125 18.34,0.14125 C18.14956,0.14125 17.995,0.29581 17.995,0.48625 L17.995,2.72875 L16.27,2.72875 L16.27,0.48625 C16.27,0.29581 16.11544,0.14125 15.925,0.14125 C15.73456,0.14125 15.58,0.29581 15.58,0.48625 L15.58,2.72875 L13.855,2.72875 L13.855,0.48625 C13.855,0.29581 13.70044,0.14125 13.51,0.14125 C13.31956,0.14125 13.165,0.29581 13.165,0.48625 L13.165,2.72875 L11.44,2.72875 L11.44,0.48625 C11.44,0.29581 11.28544,0.14125 11.095,0.14125 C10.90456,0.14125 10.75,0.29581 10.75,0.48625 L10.75,2.72875 L9.025,2.72875 L9.025,0.48625 C9.025,0.29581 8.87044,0.14125 8.68,0.14125 C8.48956,0.14125 8.335,0.29581 8.335,0.48625 L8.335,2.72875 L6.61,2.72875 L6.61,0.48625 C6.61,0.29581 6.45544,0.14125 6.265,0.14125 C6.07456,0.14125 5.92,0.29581 5.92,0.48625 L5.92,2.72875 L5.14375,2.72875 C3.81205,2.72875 2.72875,3.81205 2.72875,5.14375 L2.72875,5.92 L0.48625,5.92 C0.29581,5.92 0.14125,6.07456 0.14125,6.265 C0.14125,6.45544 0.29581,6.61 0.48625,6.61 L2.72875,6.61 L2.72875,8.335 L0.48625,8.335 C0.29581,8.335 0.14125,8.48956 0.14125,8.68 C0.14125,8.87044 0.29581,9.025 0.48625,9.025 L2.72875,9.025 L2.72875,10.75 L0.48625,10.75 C0.29581,10.75 0.14125,10.90456 0.14125,11.095 C0.14125,11.28544 0.29581,11.44 0.48625,11.44 L2.72875,11.44 L2.72875,13.165 L0.48625,13.165 C0.29581,13.165 0.14125,13.31956 0.14125,13.51 C0.14125,13.70044 0.29581,13.855 0.48625,13.855 L2.72875,13.855 L2.72875,15.58 L0.48625,15.58 C0.29581,15.58 0.14125,15.73456 0.14125,15.925 C0.14125,16.11544 0.29581,16.27 0.48625,16.27 L2.72875,16.27 L2.72875,17.995 L0.48625,17.995 C0.29581,17.995 0.14125,18.14956 0.14125,18.34 C0.14125,18.53044 0.29581,18.685 0.48625,18.685 L2.72875,18.685 L2.72875,20.41 L0.48625,20.41 C0.29581,20.41 0.14125,20.56456 0.14125,20.755 C0.14125,20.94544 0.29581,21.1 0.48625,21.1 L2.72875,21.1 L2.72875,22.825 L0.48625,22.825 C0.29581,22.825 0.14125,22.97956 0.14125,23.17 C0.14125,23.36044 0.29581,23.515 0.48625,23.515 L2.72875,23.515 L2.72875,25.24 L0.48625,25.24 C0.29581,25.24 0.14125,25.39456 0.14125,25.585 C0.14125,25.77544 0.29581,25.93 0.48625,25.93 L2.72875,25.93 L2.72875,26.70625 C2.72875,28.03795 3.81205,29.12125 5.14375,29.12125 L5.92,29.12125 L5.92,31.36375 C5.92,31.55419 6.07456,31.70875 6.265,31.70875 C6.45544,31.70875 6.61,31.55419 6.61,31.36375 L6.61,29.12125 L8.335,29.12125 L8.335,31.36375 C8.335,31.55419 8.48956,31.70875 8.68,31.70875 C8.87044,31.70875 9.025,31.55419 9.025,31.36375 L9.025,29.12125 L10.75,29.12125 L10.75,31.36375 C10.75,31.55419 10.90456,31.70875 11.095,31.70875 C11.28544,31.70875 11.44,31.55419 11.44,31.36375 L11.44,29.12125 L13.165,29.12125 L13.165,31.36375 C13.165,31.55419 13.31956,31.70875 13.51,31.70875 C13.70044,31.70875 13.855,31.55419 13.855,31.36375 L13.855,29.12125 L15.58,29.12125 L15.58,31.36375 C15.58,31.55419 15.73456,31.70875 15.925,31.70875 C16.11544,31.70875 16.27,31.55419 16.27,31.36375 L16.27,29.12125 L17.995,29.12125 L17.995,31.36375 C17.995,31.55419 18.14956,31.70875 18.34,31.70875 C18.53044,31.70875 18.685,31.55419 18.685,31.36375 L18.685,29.12125 L20.41,29.12125 L20.41,31.36375 C20.41,31.55419 20.56456,31.70875 20.755,31.70875 C20.94544,31.70875 21.1,31.55419 21.1,31.36375 L21.1,29.12125 L22.825,29.12125 L22.825,31.36375 C22.825,31.55419 22.97956,31.70875 23.17,31.70875 C23.36044,31.70875 23.515,31.55419 23.515,31.36375 L23.515,29.12125 L25.24,29.12125 L25.24,31.36375 C25.24,31.55419 25.39456,31.70875 25.585,31.70875 C25.77544,31.70875 25.93,31.55419 25.93,31.36375 L25.93,29.12125 L26.70625,29.12125 C28.03795,29.12125 29.12125,28.03795 29.12125,26.70625 L29.12125,25.93 L31.36375,25.93 C31.55419,25.93 31.70875,25.77544 31.70875,25.585 C31.70875,25.39456 31.55419,25.24 31.36375,25.24 L29.12125,25.24 L29.12125,23.515 L31.36375,23.515 C31.55419,23.515 31.70875,23.36044 31.70875,23.17 C31.70875,22.97956 31.55419,22.825 31.36375,22.825 L29.12125,22.825 L29.12125,21.1 L31.36375,21.1 C31.55419,21.1 31.70875,20.94544 31.70875,20.755 C31.70875,20.56456 31.55419,20.41 31.36375,20.41 L29.12125,20.41 L29.12125,18.685 L31.36375,18.685 C31.55419,18.685 31.70875,18.53044 31.70875,18.34 C31.70875,18.14956 31.55419,17.995 31.36375,17.995 L29.12125,17.995 L29.12125,16.27 L31.36375,16.27 C31.55419,16.27 31.70875,16.11544 31.70875,15.925 C31.70875,15.73456 31.55419,15.58 31.36375,15.58 L29.12125,15.58 L29.12125,13.855 L31.36375,13.855 C31.55419,13.855 31.70875,13.70044 31.70875,13.51 C31.70875,13.31956 31.55419,13.165 31.36375,13.165 L29.12125,13.165 L29.12125,11.44 L31.36375,11.44 C31.55419,11.44 31.70875,11.28544 31.70875,11.095 C31.70875,10.90456 31.55419,10.75 31.36375,10.75 L29.12125,10.75 L29.12125,9.025 L31.36375,9.025 Z M28.43125,26.70625 C28.43125,27.65776 27.65776,28.43125 26.70625,28.43125 L5.14375,28.43125 C4.19293,28.43125 3.41875,27.65776 3.41875,26.70625 L3.41875,5.14375 C3.41875,4.19293 4.19293,3.41875 5.14375,3.41875 L26.70625,3.41875 C27.65776,3.41875 28.43125,4.19293 28.43125,5.14375 L28.43125,26.70625 Z" id="Shape"></path>
            <path d="M25.585,5.92 L6.265,5.92 C6.07456,5.92 5.92,6.07456 5.92,6.265 L5.92,25.585 C5.92,25.77544 6.07456,25.93 6.265,25.93 L25.585,25.93 C25.77544,25.93 25.93,25.77544 25.93,25.585 L25.93,6.265 C25.93,6.07456 25.77544,5.92 25.585,5.92 Z M25.24,25.24 L6.61,25.24 L6.61,6.61 L25.24,6.61 L25.24,25.24 Z" id="Shape"></path>
        </g>
        <g id="Group" transform="translate(10.000000, 10.000000)" fill-rule="nonzero" fill="#06112E">
            <path d="M3.71058824,6.61326763 C3.53882353,6.67457935 3.44705882,6.86558893 3.51058824,7.03773337 C3.61176471,7.32306867 3.57882353,7.63434354 3.41882353,7.89138112 C3.25882353,8.1484187 2.99294118,8.31348871 2.69176471,8.34650271 L2.68470588,8.34650271 C2.50352941,8.367726 2.37647059,8.53043786 2.39529412,8.71437301 C2.42823529,8.91953145 2.62352941,9.01857346 2.76470588,9.00678274 C3.26823529,8.95254545 3.71294118,8.67428458 3.98117647,8.24274442 C4.24941176,7.81120426 4.30588235,7.29005466 4.13647059,6.81135164 C4.07294118,6.64156535 3.88235294,6.55195592 3.71058824,6.61326763 Z" id="Shape"></path>
            <path d="M4.18823529,3.17273705 L3.21882353,3.17273705 C3.01647059,3.17273705 2.85176471,3.00766705 2.85176471,2.80486675 L2.85176471,2.73412246 C2.85176471,2.55018731 2.70352941,2.4016243 2.52,2.4016243 C2.33647059,2.4016243 2.18823529,2.55018731 2.18823529,2.73412246 L2.18823529,2.80250861 C2.18823529,3.3731792 2.65176471,3.83773337 3.22117647,3.83773337 L4.18823529,3.83773337 C4.39058824,3.83773337 4.55529412,4.00280338 4.55529412,4.20560367 C4.55529412,4.38953882 4.70352941,4.53810183 4.88705882,4.53810183 C5.07058824,4.53810183 5.21882353,4.38953882 5.21882353,4.20560367 C5.22117647,3.63493307 4.75764706,3.17273705 4.18823529,3.17273705 Z" id="Shape"></path>
            <path d="M9.76470588,2.80250861 L9.76470588,2.73412246 C9.76470588,2.55018731 9.61647059,2.4016243 9.43294118,2.4016243 C9.24941176,2.4016243 9.10117647,2.55018731 9.10117647,2.73412246 L9.10117647,2.80250861 C9.10117647,3.0053089 8.93647059,3.17037891 8.73411765,3.17037891 L7.76470588,3.17037891 C7.19529412,3.17037891 6.73176471,3.63493307 6.73176471,4.20560367 C6.73176471,4.38953882 6.88,4.53810183 7.06352941,4.53810183 C7.24705882,4.53810183 7.39529412,4.38953882 7.39529412,4.20560367 C7.39529412,4.00280338 7.56,3.83773337 7.76235294,3.83773337 L8.73176471,3.83773337 C9.30352941,3.83773337 9.76470588,3.3731792 9.76470588,2.80250861 Z" id="Shape"></path>
            <path d="M8.52705882,5.90582475 C8.37176471,5.80914088 8.16705882,5.85630374 8.07058824,6.01194118 C7.97411765,6.16757861 8.02117647,6.37273705 8.17647059,6.46942091 C8.43294118,6.62977464 8.6,6.89388665 8.63294118,7.19572895 C8.66588235,7.49757125 8.56235294,7.79233912 8.34588235,8.00693013 L8.34117647,8.01164641 C8.21176471,8.14134427 8.21411765,8.34886086 8.34352941,8.47855872 C8.49647059,8.6200473 8.71058824,8.57524258 8.81411765,8.47855872 C9.17411765,8.12247913 9.35058824,7.62726911 9.29411765,7.12262651 C9.23764706,6.61798392 8.95764706,6.17465304 8.52705882,5.90582475 Z" id="Shape"></path>
            <path d="M11.9529412,5.98835975 C11.9529412,5.21488886 11.4964706,4.53574368 10.8094118,4.21503624 C11.2682353,3.5594725 11.2894118,2.66809446 10.8094118,1.98659114 C10.4305882,1.44893455 9.80470588,1.1282271 9.13176471,1.1282271 C9.02823529,1.1282271 8.92470588,1.13530153 8.82352941,1.15180853 C8.62588235,0.677821798 8.23764706,0.300518924 7.73411765,0.116583773 C7.10823529,-0.105081665 6.41647059,0.00103476815 5.97647059,0.335891069 C5.49647059,-0.00132337481 4.92,-0.0980072363 4.21882353,0.116583773 C3.71529412,0.300518924 3.32470588,0.675463655 3.12941176,1.15180853 C3.02823529,1.13765968 2.92470588,1.1282271 2.82117647,1.1282271 C2.15058824,1.1282271 1.52235294,1.44893455 1.14352941,1.98659114 C0.663529412,2.66809446 0.684705882,3.5594725 1.14352941,4.21503624 C0.456470588,4.53574368 0,5.21253072 0,5.98835975 C0,6.80427721 0.517647059,7.51407825 1.25647059,7.81120426 C0.891764706,8.318205 0.8,8.99027574 1.05411765,9.58688591 C1.46823529,10.4711895 2.27058824,10.8107621 3.08235294,10.7140782 C3.37176471,11.4922654 4.02352941,11.9521033 4.88235294,11.980401 L4.88235294,11.980401 C5.27764706,11.980401 5.65647059,11.8624939 5.97411765,11.6431866 C6.29176471,11.8601357 6.67058824,11.980401 7.06588235,11.980401 C7.86352941,11.980401 8.63764706,11.452177 8.86588235,10.7140782 C9.72470588,10.8343435 10.5952941,10.3155521 10.8941176,9.58688591 C11.1482353,8.99027574 11.0564706,8.318205 10.6917647,7.81120426 C11.4352941,7.5117201 11.9529412,6.80427721 11.9529412,5.98835975 Z M5.64470588,5.41297287 C5.64470588,5.65586159 5.44705882,5.8539456 5.20470588,5.8539456 C4.96235294,5.8539456 4.76470588,5.65586159 4.76470588,5.41297287 C4.76470588,5.22903772 4.61647059,5.08047471 4.43294118,5.08047471 C4.24941176,5.08047471 4.10117647,5.22903772 4.10117647,5.41297287 C4.10117647,6.02373189 4.59764706,6.51894192 5.20470588,6.51894192 C5.36235294,6.51894192 5.51058824,6.48592791 5.64470588,6.42697434 L5.64470588,11.0607253 C5.42823529,11.221079 5.16470588,11.3083303 4.88470588,11.3083303 L4.88470588,11.3083303 C4.30588235,11.303614 3.85647059,10.9852647 3.69411765,10.4311011 L4.26352941,9.91702593 C4.34117647,9.84863978 4.44470588,9.81798392 4.54588235,9.83920721 C4.64705882,9.86043049 4.73176471,9.92410035 4.77647059,10.0184261 C4.85647059,10.1834961 5.05411765,10.2542404 5.21882353,10.1740635 C5.38352941,10.0938866 5.45411765,9.89580264 5.37411765,9.73073263 C5.23764706,9.44539733 4.98352941,9.24731332 4.67294118,9.18600161 C4.36235294,9.12468989 4.05176471,9.20958304 3.81647059,9.4218159 L3.16470588,10.0089935 C2.52235294,10.1811379 1.92,9.90523521 1.66117647,9.32041576 C1.44705882,8.82048945 1.62117647,8.23566999 2.07294118,7.91496255 C2.68,7.74517626 2.98352941,7.4126781 3.04941176,6.95284022 C3.10823529,6.55195592 2.94352941,6.1557879 2.61647059,5.91525732 C2.46823529,5.80678274 2.26117647,5.8374386 2.15294118,5.98600161 C2.04470588,6.13456461 2.07529412,6.34208119 2.22352941,6.45055577 C2.35294118,6.54488149 2.41411765,6.69580264 2.39058824,6.85379822 C2.37411765,7.08017994 2.16705882,7.20280338 1.87529412,7.27590581 C1.18823529,7.20516152 0.656470588,6.64863978 0.656470588,5.98128532 C0.656470588,5.44598687 0.992941176,4.9814327 1.48705882,4.78099055 C1.65176471,5.18659114 2.04705882,5.47428458 2.51058824,5.47428458 C3.12,5.47428458 3.61411765,4.97671642 3.61411765,4.36831553 C3.61411765,4.18438038 3.46588235,4.03581738 3.28235294,4.03581738 C3.09882353,4.03581738 2.95058824,4.18438038 2.95058824,4.36831553 C2.95058824,4.61120426 2.75294118,4.80928827 2.51058824,4.80928827 C2.26823529,4.80928827 2.07058824,4.61120426 2.07058824,4.36831553 L1.94352941,4.10420352 C1.39529412,3.6750215 1.28,2.92513204 1.67764706,2.36389402 C1.93176471,2.00309814 2.35529412,1.78850713 2.81176471,1.78850713 C2.88705882,1.78850713 2.96235294,1.79558156 3.03764706,1.80737228 C3.15764706,2.28843344 3.59058824,2.64687117 4.10823529,2.64687117 C4.71764706,2.64687117 5.21176471,2.14930301 5.21176471,1.54090212 C5.21176471,1.35696697 5.06352941,1.20840396 4.88,1.20840396 C4.69647059,1.20840396 4.54823529,1.35696697 4.54823529,1.54090212 C4.54823529,1.78379085 4.35058824,1.98187486 4.10823529,1.98187486 C3.88235294,1.98187486 3.69882353,1.81208856 3.67294118,1.59278127 C3.76235294,1.19897139 4.04470588,0.880622093 4.43764706,0.736775372 C4.83764706,0.590570509 5.30117647,0.661314798 5.63529412,0.908919809 L5.63529412,5.41297287 L5.64470588,5.41297287 Z M10.0094118,7.29005466 C9.66588235,7.31835238 9.58588235,7.68622268 9.84470588,7.89845555 C10.3176471,8.21444671 10.5035294,8.81341502 10.2847059,9.3227739 C10.0611765,9.90759335 9.30117647,10.1834961 8.78117647,10.0113516 L8.12941176,9.42417405 C7.89411765,9.21194118 7.58352941,9.12704803 7.27294118,9.18835975 C6.96470588,9.24967147 6.70823529,9.44775548 6.57176471,9.73309077 C6.49176471,9.89816078 6.56235294,10.0986029 6.72705882,10.1764217 C6.89176471,10.2542404 7.09176471,10.1858542 7.16941176,10.0207842 C7.21411765,9.9264585 7.29882353,9.86043049 7.4,9.84156535 C7.50117647,9.82034206 7.60470588,9.84863978 7.68235294,9.91938407 L8.25176471,10.4334592 C8.12705882,10.9451763 7.63764706,11.2965396 7.06117647,11.3106884 C6.78352941,11.3106884 6.51764706,11.2234371 6.30117647,11.0630834 L6.30117647,7.29241281 C6.30117647,7.04952408 6.49882353,6.85144007 6.74117647,6.85144007 C6.98352941,6.85144007 7.18117647,7.04952408 7.18117647,7.29241281 C7.18117647,7.47634796 7.32941176,7.62491097 7.51294118,7.62491097 C7.69647059,7.62491097 7.84470588,7.47634796 7.84470588,7.29241281 C7.84470588,6.68165378 7.35058824,6.18644376 6.74117647,6.18644376 C6.58352941,6.18644376 6.43529412,6.21945776 6.30117647,6.27841133 L6.30117647,0.913636095 C6.63529412,0.666031084 7.09882353,0.595286795 7.50117647,0.741491658 C7.89176471,0.885338379 8.17647059,1.20368768 8.26588235,1.59749755 C8.24,1.81680485 8.05647059,1.98659114 7.83058824,1.98659114 C7.58823529,1.98659114 7.39058824,1.78850713 7.39058824,1.54561841 C7.39058824,1.36168326 7.24235294,1.21312025 7.05882353,1.21312025 C6.87529412,1.21312025 6.72705882,1.36168326 6.72705882,1.54561841 C6.72705882,2.15637744 7.22117647,2.65158746 7.83058824,2.65158746 C8.34823529,2.65158746 8.78117647,2.29314973 8.90117647,1.81208856 C8.97647059,1.80029785 9.05176471,1.79322342 9.12705882,1.79322342 C9.58352941,1.79322342 10.0070588,2.00781443 10.2611765,2.3686103 C10.6235294,2.88268547 10.5576471,3.54768178 10.1294118,3.98865452 C9.92,3.95328237 9.70352941,3.9768638 9.50352941,4.06411509 C9.02117647,4.2621991 8.70117647,4.87767441 8.93176471,5.52144744 C9.03764706,5.78320131 9.23529412,6.00722489 9.66117647,6.13220647 C9.79294118,6.13220647 9.92,6.05202961 9.96941176,5.9199736 C10.0376471,5.75018731 9.95294118,5.55681959 9.78117647,5.48843344 C9.67058824,5.44598687 9.58588235,5.36109372 9.53882353,5.25497729 C9.45411765,4.98850713 9.53647059,4.79749755 9.76705882,4.67487412 C9.84470588,4.64186012 9.93176471,4.6300694 10.0141176,4.64421826 C10.0541176,4.67015783 10.0964706,4.69138112 10.1458824,4.70081369 C10.8047059,4.80693013 11.2823529,5.34930301 11.2823529,5.98600161 C11.2894118,6.67457935 10.7270588,7.24524995 10.0094118,7.29005466 Z" id="Shape"></path>
        </g>
    </g>
</svg>