<?xml version="1.0" encoding="UTF-8"?>
<svg version="1.1" viewBox="0 0 32 32" xmlns="http://www.w3.org/2000/svg">
<g>
<g>
<path d="m31.364 9.025c0.19044 0 0.345-0.15456 0.345-0.345s-0.15456-0.345-0.345-0.345h-2.2425v-1.725h2.2425c0.19044 0 0.345-0.15456 0.345-0.345s-0.15456-0.345-0.345-0.345h-2.2425v-0.77625c0-1.3317-1.0833-2.415-2.415-2.415h-0.77625v-2.2425c0-0.19044-0.15456-0.345-0.345-0.345s-0.345 0.15456-0.345 0.345v2.2425h-1.725v-2.2425c0-0.19044-0.15456-0.345-0.345-0.345s-0.345 0.15456-0.345 0.345v2.2425h-1.725v-2.2425c0-0.19044-0.15456-0.345-0.345-0.345s-0.345 0.15456-0.345 0.345v2.2425h-1.725v-2.2425c0-0.19044-0.15456-0.345-0.345-0.345s-0.345 0.15456-0.345 0.345v2.2425h-1.725v-2.2425c0-0.19044-0.15456-0.345-0.345-0.345s-0.345 0.15456-0.345 0.345v2.2425h-1.725v-2.2425c0-0.19044-0.15456-0.345-0.345-0.345s-0.345 0.15456-0.345 0.345v2.2425h-1.725v-2.2425c0-0.19044-0.15456-0.345-0.345-0.345s-0.345 0.15456-0.345 0.345v2.2425h-1.725v-2.2425c0-0.19044-0.15456-0.345-0.345-0.345s-0.345 0.15456-0.345 0.345v2.2425h-1.725v-2.2425c0-0.19044-0.15456-0.345-0.345-0.345s-0.345 0.15456-0.345 0.345v2.2425h-0.77625c-1.3317 0-2.415 1.0833-2.415 2.415v0.77625h-2.2425c-0.19044 0-0.345 0.15456-0.345 0.345s0.15456 0.345 0.345 0.345h2.2425v1.725h-2.2425c-0.19044 0-0.345 0.15456-0.345 0.345s0.15456 0.345 0.345 0.345h2.2425v1.725h-2.2425c-0.19044 0-0.345 0.15456-0.345 0.345s0.15456 0.345 0.345 0.345h2.2425v1.725h-2.2425c-0.19044 0-0.345 0.15456-0.345 0.345s0.15456 0.345 0.345 0.345h2.2425v1.725h-2.2425c-0.19044 0-0.345 0.15456-0.345 0.345s0.15456 0.345 0.345 0.345h2.2425v1.725h-2.2425c-0.19044 0-0.345 0.15456-0.345 0.345s0.15456 0.345 0.345 0.345h2.2425v1.725h-2.2425c-0.19044 0-0.345 0.15456-0.345 0.345s0.15456 0.345 0.345 0.345h2.2425v1.725h-2.2425c-0.19044 0-0.345 0.15456-0.345 0.345s0.15456 0.345 0.345 0.345h2.2425v1.725h-2.2425c-0.19044 0-0.345 0.15456-0.345 0.345s0.15456 0.345 0.345 0.345h2.2425v0.77625c0 1.3317 1.0833 2.415 2.415 2.415h0.77625v2.2425c0 0.19044 0.15456 0.345 0.345 0.345s0.345-0.15456 0.345-0.345v-2.2425h1.725v2.2425c0 0.19044 0.15456 0.345 0.345 0.345s0.345-0.15456 0.345-0.345v-2.2425h1.725v2.2425c0 0.19044 0.15456 0.345 0.345 0.345s0.345-0.15456 0.345-0.345v-2.2425h1.725v2.2425c0 0.19044 0.15456 0.345 0.345 0.345s0.345-0.15456 0.345-0.345v-2.2425h1.725v2.2425c0 0.19044 0.15456 0.345 0.345 0.345s0.345-0.15456 0.345-0.345v-2.2425h1.725v2.2425c0 0.19044 0.15456 0.345 0.345 0.345s0.345-0.15456 0.345-0.345v-2.2425h1.725v2.2425c0 0.19044 0.15456 0.345 0.345 0.345s0.345-0.15456 0.345-0.345v-2.2425h1.725v2.2425c0 0.19044 0.15456 0.345 0.345 0.345s0.345-0.15456 0.345-0.345v-2.2425h1.725v2.2425c0 0.19044 0.15456 0.345 0.345 0.345s0.345-0.15456 0.345-0.345v-2.2425h0.77625c1.3317 0 2.415-1.0833 2.415-2.415v-0.77625h2.2425c0.19044 0 0.345-0.15456 0.345-0.345s-0.15456-0.345-0.345-0.345h-2.2425v-1.725h2.2425c0.19044 0 0.345-0.15456 0.345-0.345s-0.15456-0.345-0.345-0.345h-2.2425v-1.725h2.2425c0.19044 0 0.345-0.15456 0.345-0.345s-0.15456-0.345-0.345-0.345h-2.2425v-1.725h2.2425c0.19044 0 0.345-0.15456 0.345-0.345s-0.15456-0.345-0.345-0.345h-2.2425v-1.725h2.2425c0.19044 0 0.345-0.15456 0.345-0.345s-0.15456-0.345-0.345-0.345h-2.2425v-1.725h2.2425c0.19044 0 0.345-0.15456 0.345-0.345s-0.15456-0.345-0.345-0.345h-2.2425v-1.725h2.2425c0.19044 0 0.345-0.15456 0.345-0.345s-0.15456-0.345-0.345-0.345h-2.2425v-1.725h2.2425zm-2.9325 17.681c0 0.95151-0.77349 1.725-1.725 1.725h-21.562c-0.95082 0-1.725-0.77349-1.725-1.725v-21.562c0-0.95082 0.77418-1.725 1.725-1.725h21.562c0.95151 0 1.725 0.77418 1.725 1.725v21.562z"/>
<path d="m25.585 5.92h-19.32c-0.19044 0-0.345 0.15456-0.345 0.345v19.32c0 0.19044 0.15456 0.345 0.345 0.345h19.32c0.19044 0 0.345-0.15456 0.345-0.345v-19.32c0-0.19044-0.15456-0.345-0.345-0.345zm-0.345 19.32h-18.63v-18.63h18.63v18.63z"/>
</g>
<g transform="translate(10 10)" fill="#06112E">
<path d="m3.7106 6.6133c-0.17176 0.061312-0.26353 0.25232-0.2 0.42447 0.10118 0.28534 0.068235 0.59661-0.091765 0.85365s-0.42588 0.42211-0.72706 0.45512h-0.0070588c-0.18118 0.021223-0.30824 0.18394-0.28941 0.36787 0.032941 0.20516 0.22824 0.3042 0.36941 0.29241 0.50353-0.054237 0.94824-0.3325 1.2165-0.76404s0.32471-0.95269 0.15529-1.4314c-0.063529-0.16979-0.25412-0.2594-0.42588-0.19808z"/>
<path d="m4.1882 3.1727h-0.96941c-0.20235 0-0.36706-0.16507-0.36706-0.36787v-0.070744c0-0.18394-0.14824-0.3325-0.33176-0.3325s-0.33176 0.14856-0.33176 0.3325v0.068386c0 0.57067 0.46353 1.0352 1.0329 1.0352h0.96706c0.20235 0 0.36706 0.16507 0.36706 0.36787 0 0.18394 0.14824 0.3325 0.33176 0.3325 0.18353 0 0.33176-0.14856 0.33176-0.3325 0.0023529-0.57067-0.46118-1.0329-1.0306-1.0329z"/>
<path d="m9.7647 2.8025v-0.068386c0-0.18394-0.14824-0.3325-0.33176-0.3325-0.18353 0-0.33176 0.14856-0.33176 0.3325v0.068386c0 0.2028-0.16471 0.36787-0.36706 0.36787h-0.96941c-0.56941 0-1.0329 0.46455-1.0329 1.0352 0 0.18394 0.14824 0.3325 0.33176 0.3325s0.33176-0.14856 0.33176-0.3325c0-0.2028 0.16471-0.36787 0.36706-0.36787h0.96941c0.57176 0 1.0329-0.46455 1.0329-1.0352z"/>
<path d="m8.5271 5.9058c-0.15529-0.096684-0.36-0.049521-0.45647 0.10612-0.096471 0.15564-0.049412 0.3608 0.10588 0.45748 0.25647 0.16035 0.42353 0.42447 0.45647 0.72631 0.032941 0.30184-0.070588 0.59661-0.28706 0.8112l-0.0047059 0.0047163c-0.12941 0.1297-0.12706 0.33721 0.0023529 0.46691 0.15294 0.14149 0.36706 0.096684 0.47059 0 0.36-0.35608 0.53647-0.85129 0.48-1.3559-0.056471-0.50464-0.33647-0.94797-0.76706-1.2168z"/>
<path d="m11.953 5.9884c0-0.77347-0.45647-1.4526-1.1435-1.7733 0.45882-0.65556 0.48-1.5469 0-2.2284-0.37882-0.53766-1.0047-0.85836-1.6776-0.85836-0.10353 0-0.20706 0.0070744-0.30824 0.023581-0.19765-0.47399-0.58588-0.85129-1.0894-1.0352-0.62588-0.22167-1.3176-0.11555-1.7576 0.21931-0.48-0.33721-1.0565-0.4339-1.7576-0.21931-0.50353 0.18394-0.89412 0.55888-1.0894 1.0352-0.10118-0.014149-0.20471-0.023581-0.30824-0.023581-0.67059 0-1.2988 0.32071-1.6776 0.85836-0.48 0.6815-0.45882 1.5729 0 2.2284-0.68706 0.32071-1.1435 0.99749-1.1435 1.7733 0 0.81592 0.51765 1.5257 1.2565 1.8228-0.36471 0.507-0.45647 1.1791-0.20235 1.7757 0.41412 0.8843 1.2165 1.2239 2.0282 1.1272 0.28941 0.77819 0.94118 1.238 1.8 1.2663 0.39529 0 0.77412-0.11791 1.0918-0.33721 0.31765 0.21695 0.69647 0.33721 1.0918 0.33721 0.79765 0 1.5718-0.52822 1.8-1.2663 0.85882 0.12027 1.7294-0.39853 2.0282-1.1272 0.25412-0.59661 0.16235-1.2687-0.20235-1.7757 0.74353-0.29948 1.2612-1.0069 1.2612-1.8228zm-6.3082-0.57539c0 0.24289-0.19765 0.44097-0.44 0.44097s-0.44-0.19808-0.44-0.44097c0-0.18394-0.14824-0.3325-0.33176-0.3325-0.18353 0-0.33176 0.14856-0.33176 0.3325 0 0.61076 0.49647 1.106 1.1035 1.106 0.15765 0 0.30588-0.033014 0.44-0.091968v4.6338c-0.21647 0.16035-0.48 0.2476-0.76 0.2476-0.57882-0.0047163-1.0282-0.32307-1.1906-0.87723l0.56941-0.51408c0.077647-0.068386 0.18118-0.099042 0.28235-0.077819 0.10118 0.021223 0.18588 0.084893 0.23059 0.17922 0.08 0.16507 0.27765 0.23581 0.44235 0.15564s0.23529-0.27826 0.15529-0.44333c-0.13647-0.28534-0.39059-0.48342-0.70118-0.54473-0.31059-0.061312-0.62118 0.023581-0.85647 0.23581l-0.65176 0.58718c-0.64235 0.17214-1.2447-0.10376-1.5035-0.68858-0.21412-0.49993-0.04-1.0847 0.41176-1.4055 0.60706-0.16979 0.91059-0.50228 0.97647-0.96212 0.058824-0.40088-0.10588-0.79705-0.43294-1.0376-0.14824-0.10847-0.35529-0.077819-0.46353 0.070744-0.10824 0.14856-0.077647 0.35608 0.070588 0.46455 0.12941 0.094326 0.19059 0.24525 0.16706 0.40324-0.016471 0.22638-0.22353 0.34901-0.51529 0.42211-0.68706-0.070744-1.2188-0.62727-1.2188-1.2946 0-0.5353 0.33647-0.99985 0.83059-1.2003 0.16471 0.4056 0.56 0.69329 1.0235 0.69329 0.60941 0 1.1035-0.49757 1.1035-1.106 0-0.18394-0.14824-0.3325-0.33176-0.3325s-0.33176 0.14856-0.33176 0.3325c0 0.24289-0.19765 0.44097-0.44 0.44097-0.24235 0-0.44-0.19808-0.44-0.44097l-0.12706-0.26411c-0.54824-0.42918-0.66353-1.1791-0.26588-1.7403 0.25412-0.3608 0.67765-0.57539 1.1341-0.57539 0.075294 0 0.15059 0.0070744 0.22588 0.018865 0.12 0.48106 0.55294 0.8395 1.0706 0.8395 0.60941 0 1.1035-0.49757 1.1035-1.106 0-0.18394-0.14824-0.3325-0.33176-0.3325s-0.33176 0.14856-0.33176 0.3325c0 0.24289-0.19765 0.44097-0.44 0.44097-0.22588 0-0.40941-0.16979-0.43529-0.38909 0.089412-0.39381 0.37176-0.71216 0.76471-0.85601 0.4-0.1462 0.86353-0.075461 1.1976 0.17214v4.5041h0.0094118zm4.3647 1.8771c-0.34353 0.028298-0.42353 0.39617-0.16471 0.6084 0.47294 0.31599 0.65882 0.91496 0.44 1.4243-0.22353 0.58482-0.98353 0.86072-1.5035 0.68858l-0.65176-0.58718c-0.23529-0.21223-0.54588-0.29713-0.85647-0.23581-0.30824 0.061312-0.56471 0.2594-0.70118 0.54473-0.08 0.16507-0.0094118 0.36551 0.15529 0.44333 0.16471 0.077819 0.36471 0.0094325 0.44235-0.15564 0.044706-0.094326 0.12941-0.16035 0.23059-0.17922 0.10118-0.021223 0.20471 0.0070744 0.28235 0.077819l0.56941 0.51408c-0.12471 0.51172-0.61412 0.86308-1.1906 0.87723-0.27765 0-0.54353-0.087251-0.76-0.2476v-3.7707c0-0.24289 0.19765-0.44097 0.44-0.44097s0.44 0.19808 0.44 0.44097c0 0.18394 0.14824 0.3325 0.33176 0.3325 0.18353 0 0.33176-0.14856 0.33176-0.3325 0-0.61076-0.49412-1.106-1.1035-1.106-0.15765 0-0.30588 0.033014-0.44 0.091968v-5.3648c0.33412-0.24761 0.79765-0.31835 1.2-0.17214 0.39059 0.14385 0.67529 0.4622 0.76471 0.85601-0.025882 0.21931-0.20941 0.38909-0.43529 0.38909-0.24235 0-0.44-0.19808-0.44-0.44097 0-0.18394-0.14824-0.3325-0.33176-0.3325s-0.33176 0.14856-0.33176 0.3325c0 0.61076 0.49412 1.106 1.1035 1.106 0.51765 0 0.95059-0.35844 1.0706-0.8395 0.075294-0.011791 0.15059-0.018865 0.22588-0.018865 0.45647 0 0.88 0.21459 1.1341 0.57539 0.36235 0.51408 0.29647 1.1791-0.13176 1.62-0.20941-0.035372-0.42588-0.011791-0.62588 0.075461-0.48235 0.19808-0.80235 0.81356-0.57176 1.4573 0.10588 0.26175 0.30353 0.48578 0.72941 0.61076 0.13176 0 0.25882-0.080177 0.30824-0.21223 0.068235-0.16979-0.016471-0.36315-0.18824-0.43154-0.11059-0.042447-0.19529-0.12734-0.24235-0.23346-0.084706-0.26647-0.0023529-0.45748 0.22824-0.5801 0.077647-0.033014 0.16471-0.044805 0.24706-0.030656 0.04 0.02594 0.082353 0.047163 0.13176 0.056595 0.65882 0.10612 1.1365 0.64849 1.1365 1.2852 0.0070589 0.68858-0.55529 1.2592-1.2729 1.3041z"/>
</g>
</g>
</svg>