<?xml version="1.0" encoding="UTF-8"?>
<svg fill="#000000" version="1.1" viewBox="0 0 100 100" xmlns="http://www.w3.org/2000/svg" xmlns:xlink="http://www.w3.org/1999/xlink">
<g fill="none" fill-rule="evenodd">
<g fill="#000">
<path d="m58.482 69.066c0.743-1.589 1.605-3.54 2.108-5.036 0.256-0.763 0.535-1.826 0.807-2.983 0.352-1.306 0.672-2.68 0.958-4.116 2.882 2.854 7.271 7.96 8.382 13.508-4.733-0.945-9.328-1.268-12.255-1.373m-27.22 1.373c1.111-5.548 5.5-10.654 8.382-13.508 0.287 1.438 0.607 2.813 0.959 4.121 0.273 1.155 0.55 2.216 0.806 2.978 0.503 1.496 1.365 3.447 2.109 5.036-2.927 0.105-7.523 0.428-12.256 1.373m9.577-18.439h2.161c0.556 0 1-0.448 1-1 0-0.556-0.448-1-1-1h-2.411c-0.074-0.661-0.142-1.327-0.203-2h5.617c0.543 0 0.997-0.448 0.997-1 0-0.557-0.447-1-0.997-1h-5.777c-0.045-0.662-0.081-1.33-0.113-2h2.887c0.556 0 1-0.448 1-1 0-0.557-0.448-1-1-1h-2.96c-0.018-0.663-0.028-1.33-0.033-2h0.994c0.556 0 0.999-0.448 0.999-1 0-0.557-0.448-1-0.999-1h-0.961c0.02-0.671 0.045-1.339 0.093-2h0.868c0.556 0 0.999-0.448 0.999-1 0-0.557-0.448-1-0.999-1h-0.686c0.079-0.675 0.18-1.338 0.284-2h1.391c0.566 0 1.01-0.448 1.01-1 0-0.557-0.453-1-1.01-1h-1.035c0.133-0.674 0.273-1.343 0.429-2h2.616c0.556 0 1-0.448 1-1 0-0.557-0.448-1-1-1h-2.112c0.188-0.68 0.39-1.343 0.597-2h5.518c0.543 0 0.997-0.448 0.997-1 0-0.557-0.447-1-0.997-1h-4.848c0.244-0.689 0.494-1.36 0.751-2.019 0.033 3e-3 0.06 0.019 0.094 0.019h3c0.556 0 1-0.448 1-1 0-0.557-0.448-1-1-1h-2.284c0.295-0.688 0.592-1.354 0.893-2h5.394c0.543 0 0.997-0.448 0.997-1 0-0.557-0.447-1-0.997-1h-4.424c0.352-0.698 0.701-1.367 1.047-2h2.374c0.556 0 1-0.448 1-1 0-0.557-0.448-1-1-1h-1.248c0.847-1.442 1.623-2.648 2.25-3.576 3.367 4.971 10.998 17.89 10.998 32.868 0 4.803-0.349 9.453-0.987 13.718-4e-3 -3e-3 -0.013-0.01-0.013-0.01s-0.799 4.462-1.604 7.82c-0.877 3.201-1.95 5.99-3.195 8.18h-10.402c-0.181-0.319-0.356-0.658-0.529-1h2.73c0.556 0 1-0.448 1-1 0-0.556-0.448-1-1-1h-3c-0.216 0-0.405 0.082-0.567 0.197-0.295-0.695-0.575-1.432-0.844-2.197h5.414c0.543 0 0.997-0.448 0.997-1 0-0.556-0.447-1-0.997-1h-6.006c-0.02 0-0.037 9e-3 -0.057 0.011-0.116-0.389-0.228-0.791-0.338-1.194-0.064-0.267-0.128-0.539-0.191-0.817h2.589c0.556 0 1-0.448 1-1 0-0.556-0.448-1-1-1h-3c-9e-3 0-0.017 4e-3 -0.025 4e-3 -0.147-0.699-0.284-1.376-0.407-2.004h5.435c0.543 0 0.997-0.448 0.997-1 0-0.556-0.447-1-0.997-1h-5.819c-0.115-0.613-0.184-1-0.184-1s-0.011 7e-3 -0.015 0.01c-0.049-0.335-0.099-0.671-0.146-1.01m21.949 2.568c0.773-4.646 1.212-9.815 1.212-15.276 0-20.044-13-36.292-13-36.292s-2.252 2.819-4.88 7.547c-0.015 0.029-0.034 0.054-0.047 0.085-3.679 6.64-8.073 17.004-8.073 28.66 0 5.461 0.438 10.63 1.211 15.276-3.343 3.117-10.211 10.486-10.211 18.432 7.239-1.841 14.872-1.984 17.068-1.984 0.403 0 0.623 5e-3 0.623 5e-3l-0.011-0.021h8.639l-0.011 0.021s0.22-5e-3 0.623-5e-3c2.197 0 9.829 0.143 17.069 1.984 0-7.946-6.87-15.316-10.212-18.432"/>
<path d="m51 90.038c-1.274-1.597-3-4.344-3-7.515 0-3.132 1.368-6.096 2.143-7.523h2.385c0.619 2.1 1.472 5.452 1.472 7.523 0 3.171-1.727 5.919-3 7.515zm-2-17.038s-3 4.477-3 9.523c0 5.999 5 10.477 5 10.477s5-4.478 5-10.477c0-3.524-2-9.523-2-9.523h-5z"/>
<path d="m45 36c0-3.309 2.691-6 6-6s6 2.691 6 6-2.691 6-6 6-6-2.691-6-6m14 0c0-4.418-3.582-8-8-8s-8 3.582-8 8 3.582 8 8 8 8-3.582 8-8"/>
<path d="m48 36c0-1.654 1.346-3 3-3s3 1.346 3 3-1.346 3-3 3-3-1.346-3-3m8 0c0-2.761-2.238-5-5-5-2.761 0-5 2.239-5 5s2.239 5 5 5c2.762 0 5-2.239 5-5"/>
<path d="m93 34c-1.103 0-2-0.897-2-2s0.897-2 2-2 2 0.897 2 2-0.897 2-2 2m0-6c-2.209 0-4 1.791-4 4s1.791 4 4 4 4-1.791 4-4-1.791-4-4-4"/>
<path d="m8.5 94c-1.93 0-3.5-1.57-3.5-3.5s1.57-3.5 3.5-3.5 3.5 1.57 3.5 3.5-1.57 3.5-3.5 3.5m0-9c-3.038 0-5.5 2.463-5.5 5.5s2.462 5.5 5.5 5.5 5.5-2.463 5.5-5.5-2.462-5.5-5.5-5.5"/>
<path d="m23 19c-0.551 0-1-0.449-1-1s0.449-1 1-1 1 0.449 1 1-0.449 1-1 1m0-4c-1.657 0-3 1.343-3 3s1.343 3 3 3 3-1.343 3-3-1.343-3-3-3"/>
<path d="m30 74c-0.556 0-1 0.447-1 1v15c0 0.545 0.448 1 1 1 0.556 0 1-0.447 1-1v-15c0-0.545-0.448-1-1-1"/>
<path d="m30 95c-0.556 0-1 0.447-1 0.999v1.002c0 0.557 0.448 0.999 1 0.999 0.556 0 1-0.447 1-0.999v-1.002c0-0.557-0.448-0.999-1-0.999"/>
<path d="m72 74c-0.556 0-1 0.447-1 0.998v11.004c0 0.551 0.447 0.998 1 0.998 0.556 0 1-0.447 1-0.998v-11.004c0-0.551-0.447-0.998-1-0.998"/>
<path d="m64 83c-0.556 0-1 0.447-1 0.999v1.002c0 0.557 0.447 0.999 1 0.999 0.556 0 1-0.447 1-0.999v-1.002c0-0.557-0.447-0.999-1-0.999"/>
<path d="m64 74c-0.556 0-1 0.443-1 0.991v4.018c0 0.54 0.447 0.991 1 0.991 0.556 0 1-0.443 1-0.991v-4.018c0-0.54-0.447-0.991-1-0.991"/>
<path d="m64 89c-0.556 0-1 0.447-1 1v3c0 0.557 0.447 1 1 1 0.556 0 1-0.447 1-1v-3c0-0.557-0.447-1-1-1"/>
<path d="m39 77c-0.556 0-1 0.449-1 1.003v9.994c0 0.547 0.448 1.003 1 1.003 0.556 0 1-0.449 1-1.003v-9.994c0-0.547-0.448-1.003-1-1.003"/>
<path d="m72 89c-0.556 0-1 0.452-1 1.01v1.98c0 0.567 0.447 1.01 1 1.01 0.556 0 1-0.452 1-1.01v-1.98c0-0.567-0.447-1.01-1-1.01"/>
<path d="m69.586 11l-1.416 1.417c-0.385 0.384-0.389 1.021 2e-3 1.412 0.393 0.393 1.022 0.391 1.412 2e-3l1.416-1.417 1.416 1.417c0.385 0.384 1.022 0.388 1.412-2e-3 0.394-0.394 0.392-1.023 2e-3 -1.412l-1.416-1.417 1.416-1.417c0.385-0.384 0.389-1.021-2e-3 -1.412-0.392-0.393-1.022-0.391-1.412-2e-3l-1.416 1.417-1.416-1.417c-0.385-0.384-1.021-0.388-1.412 2e-3 -0.394 0.394-0.392 1.023-2e-3 1.412l1.416 1.417z"/>
<path d="m89 54c0.556 0 1-0.447 1-1 0-0.556-0.447-1-1-1-0.556 0-1 0.447-1 1 0 0.556 0.447 1 1 1"/>
<path d="m30 42c0-0.556-0.448-1-1-1-0.556 0-1 0.448-1 1 0 0.556 0.448 1 1 1 0.556 0 1-0.448 1-1"/>
<path d="m14 28c0.556 0 1-0.448 1-1 0-0.556-0.448-1-1-1-0.556 0-1 0.448-1 1 0 0.556 0.448 1 1 1"/>
<path d="m91.414 77l2.125-2.125c0.382-0.381 0.387-1.02-4e-3 -1.41-0.392-0.394-1.021-0.393-1.41-4e-3l-2.125 2.125-2.125-2.125c-0.381-0.382-1.02-0.387-1.41 4e-3 -0.394 0.392-0.393 1.021-4e-3 1.41l2.125 2.125-2.125 2.125c-0.382 0.381-0.387 1.02 4e-3 1.41 0.392 0.394 1.021 0.393 1.41 4e-3l2.125-2.125 2.125 2.125c0.381 0.382 1.019 0.387 1.41-4e-3 0.394-0.392 0.393-1.021 4e-3 -1.41l-2.125-2.125z"/>
<path d="m91 91c-0.556 0-1 0.447-1 1 0 0.556 0.447 1 1 1 0.556 0 1-0.447 1-1 0-0.556-0.447-1-1-1"/>
<path d="m18.004 55h-3.004v-3.005c0-0.539-0.448-0.995-1-0.995-0.557 0-1 0.445-1 0.995v3.005h-3.005c-0.54 0-0.995 0.447-0.995 1 0 0.556 0.445 1 0.995 1h3.005v3.005c0 0.539 0.447 0.995 1 0.995 0.556 0 1-0.445 1-0.995v-3.005h3.004c0.54 0 0.996-0.447 0.996-1 0-0.556-0.446-1-0.996-1"/>
<path d="m19 5c-0.556 0-1 0.448-1 1 0 0.556 0.448 1 1 1 0.556 0 1-0.448 1-1 0-0.556-0.448-1-1-1"/>
<path d="m15 82c-0.556 0-1 0.447-1 1 0 0.556 0.448 1 1 1 0.556 0 1-0.447 1-1 0-0.556-0.448-1-1-1"/>
<path d="m74 28c-0.556 0-1 0.448-1 1 0 0.556 0.447 1 1 1 0.556 0 1-0.448 1-1 0-0.556-0.447-1-1-1"/>
<path d="m93 8c0.556 0 1-0.448 1-1 0-0.556-0.447-1-1-1-0.556 0-1 0.448-1 1 0 0.556 0.447 1 1 1"/>
</g>
</g>
</svg>